%TF.GenerationSoftware,KiCad,Pcbnew,7.0.6*%
%TF.CreationDate,2023-11-15T18:28:15-08:00*%
%TF.ProjectId,Project 2,50726f6a-6563-4742-9032-2e6b69636164,rev?*%
%TF.SameCoordinates,Original*%
%TF.FileFunction,Legend,Top*%
%TF.FilePolarity,Positive*%
%FSLAX46Y46*%
G04 Gerber Fmt 4.6, Leading zero omitted, Abs format (unit mm)*
G04 Created by KiCad (PCBNEW 7.0.6) date 2023-11-15 18:28:15*
%MOMM*%
%LPD*%
G01*
G04 APERTURE LIST*
%ADD10C,0.125000*%
%ADD11C,0.150000*%
%ADD12C,0.100000*%
%ADD13C,0.120000*%
%ADD14C,1.700000*%
%ADD15R,1.700000X1.700000*%
%ADD16C,2.100000*%
%ADD17R,1.600000X1.600000*%
%ADD18O,1.600000X1.600000*%
%ADD19C,3.800000*%
G04 APERTURE END LIST*
D10*
X162845378Y-55810547D02*
X162578712Y-55810547D01*
X162578712Y-56229595D02*
X162578712Y-55429595D01*
X162578712Y-55429595D02*
X162959664Y-55429595D01*
X163607283Y-56229595D02*
X163607283Y-55810547D01*
X163607283Y-55810547D02*
X163569188Y-55734357D01*
X163569188Y-55734357D02*
X163492997Y-55696261D01*
X163492997Y-55696261D02*
X163340616Y-55696261D01*
X163340616Y-55696261D02*
X163264426Y-55734357D01*
X163607283Y-56191500D02*
X163531092Y-56229595D01*
X163531092Y-56229595D02*
X163340616Y-56229595D01*
X163340616Y-56229595D02*
X163264426Y-56191500D01*
X163264426Y-56191500D02*
X163226330Y-56115309D01*
X163226330Y-56115309D02*
X163226330Y-56039119D01*
X163226330Y-56039119D02*
X163264426Y-55962928D01*
X163264426Y-55962928D02*
X163340616Y-55924833D01*
X163340616Y-55924833D02*
X163531092Y-55924833D01*
X163531092Y-55924833D02*
X163607283Y-55886738D01*
X163988236Y-56229595D02*
X163988236Y-55696261D01*
X163988236Y-55429595D02*
X163950140Y-55467690D01*
X163950140Y-55467690D02*
X163988236Y-55505785D01*
X163988236Y-55505785D02*
X164026331Y-55467690D01*
X164026331Y-55467690D02*
X163988236Y-55429595D01*
X163988236Y-55429595D02*
X163988236Y-55505785D01*
X164331092Y-56191500D02*
X164407283Y-56229595D01*
X164407283Y-56229595D02*
X164559664Y-56229595D01*
X164559664Y-56229595D02*
X164635854Y-56191500D01*
X164635854Y-56191500D02*
X164673950Y-56115309D01*
X164673950Y-56115309D02*
X164673950Y-56077214D01*
X164673950Y-56077214D02*
X164635854Y-56001023D01*
X164635854Y-56001023D02*
X164559664Y-55962928D01*
X164559664Y-55962928D02*
X164445378Y-55962928D01*
X164445378Y-55962928D02*
X164369188Y-55924833D01*
X164369188Y-55924833D02*
X164331092Y-55848642D01*
X164331092Y-55848642D02*
X164331092Y-55810547D01*
X164331092Y-55810547D02*
X164369188Y-55734357D01*
X164369188Y-55734357D02*
X164445378Y-55696261D01*
X164445378Y-55696261D02*
X164559664Y-55696261D01*
X164559664Y-55696261D02*
X164635854Y-55734357D01*
X165359664Y-56229595D02*
X165359664Y-55810547D01*
X165359664Y-55810547D02*
X165321569Y-55734357D01*
X165321569Y-55734357D02*
X165245378Y-55696261D01*
X165245378Y-55696261D02*
X165092997Y-55696261D01*
X165092997Y-55696261D02*
X165016807Y-55734357D01*
X165359664Y-56191500D02*
X165283473Y-56229595D01*
X165283473Y-56229595D02*
X165092997Y-56229595D01*
X165092997Y-56229595D02*
X165016807Y-56191500D01*
X165016807Y-56191500D02*
X164978711Y-56115309D01*
X164978711Y-56115309D02*
X164978711Y-56039119D01*
X164978711Y-56039119D02*
X165016807Y-55962928D01*
X165016807Y-55962928D02*
X165092997Y-55924833D01*
X165092997Y-55924833D02*
X165283473Y-55924833D01*
X165283473Y-55924833D02*
X165359664Y-55886738D01*
X165854902Y-56229595D02*
X165778712Y-56191500D01*
X165778712Y-56191500D02*
X165740617Y-56115309D01*
X165740617Y-56115309D02*
X165740617Y-55429595D01*
X166731093Y-56001023D02*
X167112046Y-56001023D01*
X166654903Y-56229595D02*
X166921570Y-55429595D01*
X166921570Y-55429595D02*
X167188236Y-56229595D01*
X167569188Y-56229595D02*
X167492998Y-56191500D01*
X167492998Y-56191500D02*
X167454903Y-56115309D01*
X167454903Y-56115309D02*
X167454903Y-55429595D01*
X167835855Y-56191500D02*
X167912046Y-56229595D01*
X167912046Y-56229595D02*
X168064427Y-56229595D01*
X168064427Y-56229595D02*
X168140617Y-56191500D01*
X168140617Y-56191500D02*
X168178713Y-56115309D01*
X168178713Y-56115309D02*
X168178713Y-56077214D01*
X168178713Y-56077214D02*
X168140617Y-56001023D01*
X168140617Y-56001023D02*
X168064427Y-55962928D01*
X168064427Y-55962928D02*
X167950141Y-55962928D01*
X167950141Y-55962928D02*
X167873951Y-55924833D01*
X167873951Y-55924833D02*
X167835855Y-55848642D01*
X167835855Y-55848642D02*
X167835855Y-55810547D01*
X167835855Y-55810547D02*
X167873951Y-55734357D01*
X167873951Y-55734357D02*
X167950141Y-55696261D01*
X167950141Y-55696261D02*
X168064427Y-55696261D01*
X168064427Y-55696261D02*
X168140617Y-55734357D01*
X168826332Y-56191500D02*
X168750141Y-56229595D01*
X168750141Y-56229595D02*
X168597760Y-56229595D01*
X168597760Y-56229595D02*
X168521570Y-56191500D01*
X168521570Y-56191500D02*
X168483474Y-56115309D01*
X168483474Y-56115309D02*
X168483474Y-55810547D01*
X168483474Y-55810547D02*
X168521570Y-55734357D01*
X168521570Y-55734357D02*
X168597760Y-55696261D01*
X168597760Y-55696261D02*
X168750141Y-55696261D01*
X168750141Y-55696261D02*
X168826332Y-55734357D01*
X168826332Y-55734357D02*
X168864427Y-55810547D01*
X168864427Y-55810547D02*
X168864427Y-55886738D01*
X168864427Y-55886738D02*
X168483474Y-55962928D01*
X169321569Y-56229595D02*
X169245379Y-56191500D01*
X169245379Y-56191500D02*
X169207284Y-56115309D01*
X169207284Y-56115309D02*
X169207284Y-55429595D01*
X169931094Y-56191500D02*
X169854903Y-56229595D01*
X169854903Y-56229595D02*
X169702522Y-56229595D01*
X169702522Y-56229595D02*
X169626332Y-56191500D01*
X169626332Y-56191500D02*
X169588236Y-56115309D01*
X169588236Y-56115309D02*
X169588236Y-55810547D01*
X169588236Y-55810547D02*
X169626332Y-55734357D01*
X169626332Y-55734357D02*
X169702522Y-55696261D01*
X169702522Y-55696261D02*
X169854903Y-55696261D01*
X169854903Y-55696261D02*
X169931094Y-55734357D01*
X169931094Y-55734357D02*
X169969189Y-55810547D01*
X169969189Y-55810547D02*
X169969189Y-55886738D01*
X169969189Y-55886738D02*
X169588236Y-55962928D01*
X170312046Y-56229595D02*
X170312046Y-55696261D01*
X170312046Y-55772452D02*
X170350141Y-55734357D01*
X170350141Y-55734357D02*
X170426331Y-55696261D01*
X170426331Y-55696261D02*
X170540617Y-55696261D01*
X170540617Y-55696261D02*
X170616808Y-55734357D01*
X170616808Y-55734357D02*
X170654903Y-55810547D01*
X170654903Y-55810547D02*
X170654903Y-56229595D01*
X170654903Y-55810547D02*
X170692998Y-55734357D01*
X170692998Y-55734357D02*
X170769189Y-55696261D01*
X170769189Y-55696261D02*
X170883474Y-55696261D01*
X170883474Y-55696261D02*
X170959665Y-55734357D01*
X170959665Y-55734357D02*
X170997760Y-55810547D01*
X170997760Y-55810547D02*
X170997760Y-56229595D01*
X171721570Y-56229595D02*
X171721570Y-55810547D01*
X171721570Y-55810547D02*
X171683475Y-55734357D01*
X171683475Y-55734357D02*
X171607284Y-55696261D01*
X171607284Y-55696261D02*
X171454903Y-55696261D01*
X171454903Y-55696261D02*
X171378713Y-55734357D01*
X171721570Y-56191500D02*
X171645379Y-56229595D01*
X171645379Y-56229595D02*
X171454903Y-56229595D01*
X171454903Y-56229595D02*
X171378713Y-56191500D01*
X171378713Y-56191500D02*
X171340617Y-56115309D01*
X171340617Y-56115309D02*
X171340617Y-56039119D01*
X171340617Y-56039119D02*
X171378713Y-55962928D01*
X171378713Y-55962928D02*
X171454903Y-55924833D01*
X171454903Y-55924833D02*
X171645379Y-55924833D01*
X171645379Y-55924833D02*
X171721570Y-55886738D01*
X172102523Y-55696261D02*
X172102523Y-56229595D01*
X172102523Y-55772452D02*
X172140618Y-55734357D01*
X172140618Y-55734357D02*
X172216808Y-55696261D01*
X172216808Y-55696261D02*
X172331094Y-55696261D01*
X172331094Y-55696261D02*
X172407285Y-55734357D01*
X172407285Y-55734357D02*
X172445380Y-55810547D01*
X172445380Y-55810547D02*
X172445380Y-56229595D01*
X172750142Y-55696261D02*
X172940618Y-56229595D01*
X173131095Y-55696261D02*
X172940618Y-56229595D01*
X172940618Y-56229595D02*
X172864428Y-56420071D01*
X172864428Y-56420071D02*
X172826333Y-56458166D01*
X172826333Y-56458166D02*
X172750142Y-56496261D01*
X162845378Y-57098547D02*
X162578712Y-57098547D01*
X162578712Y-57517595D02*
X162578712Y-56717595D01*
X162578712Y-56717595D02*
X162959664Y-56717595D01*
X163607283Y-57517595D02*
X163607283Y-57098547D01*
X163607283Y-57098547D02*
X163569188Y-57022357D01*
X163569188Y-57022357D02*
X163492997Y-56984261D01*
X163492997Y-56984261D02*
X163340616Y-56984261D01*
X163340616Y-56984261D02*
X163264426Y-57022357D01*
X163607283Y-57479500D02*
X163531092Y-57517595D01*
X163531092Y-57517595D02*
X163340616Y-57517595D01*
X163340616Y-57517595D02*
X163264426Y-57479500D01*
X163264426Y-57479500D02*
X163226330Y-57403309D01*
X163226330Y-57403309D02*
X163226330Y-57327119D01*
X163226330Y-57327119D02*
X163264426Y-57250928D01*
X163264426Y-57250928D02*
X163340616Y-57212833D01*
X163340616Y-57212833D02*
X163531092Y-57212833D01*
X163531092Y-57212833D02*
X163607283Y-57174738D01*
X163912045Y-56984261D02*
X164064426Y-57517595D01*
X164064426Y-57517595D02*
X164216807Y-57136642D01*
X164216807Y-57136642D02*
X164369188Y-57517595D01*
X164369188Y-57517595D02*
X164521569Y-56984261D01*
X164750140Y-56984261D02*
X165169188Y-56984261D01*
X165169188Y-56984261D02*
X164750140Y-57517595D01*
X164750140Y-57517595D02*
X165169188Y-57517595D01*
X165816807Y-57517595D02*
X165816807Y-57098547D01*
X165816807Y-57098547D02*
X165778712Y-57022357D01*
X165778712Y-57022357D02*
X165702521Y-56984261D01*
X165702521Y-56984261D02*
X165550140Y-56984261D01*
X165550140Y-56984261D02*
X165473950Y-57022357D01*
X165816807Y-57479500D02*
X165740616Y-57517595D01*
X165740616Y-57517595D02*
X165550140Y-57517595D01*
X165550140Y-57517595D02*
X165473950Y-57479500D01*
X165473950Y-57479500D02*
X165435854Y-57403309D01*
X165435854Y-57403309D02*
X165435854Y-57327119D01*
X165435854Y-57327119D02*
X165473950Y-57250928D01*
X165473950Y-57250928D02*
X165550140Y-57212833D01*
X165550140Y-57212833D02*
X165740616Y-57212833D01*
X165740616Y-57212833D02*
X165816807Y-57174738D01*
X166197760Y-56984261D02*
X166197760Y-57517595D01*
X166197760Y-57060452D02*
X166235855Y-57022357D01*
X166235855Y-57022357D02*
X166312045Y-56984261D01*
X166312045Y-56984261D02*
X166426331Y-56984261D01*
X166426331Y-56984261D02*
X166502522Y-57022357D01*
X166502522Y-57022357D02*
X166540617Y-57098547D01*
X166540617Y-57098547D02*
X166540617Y-57517595D01*
X167492998Y-57289023D02*
X167873951Y-57289023D01*
X167416808Y-57517595D02*
X167683475Y-56717595D01*
X167683475Y-56717595D02*
X167950141Y-57517595D01*
X168331093Y-57517595D02*
X168254903Y-57479500D01*
X168254903Y-57479500D02*
X168216808Y-57403309D01*
X168216808Y-57403309D02*
X168216808Y-56717595D01*
X168521570Y-56984261D02*
X168826332Y-56984261D01*
X168635856Y-57517595D02*
X168635856Y-56831880D01*
X168635856Y-56831880D02*
X168673951Y-56755690D01*
X168673951Y-56755690D02*
X168750141Y-56717595D01*
X168750141Y-56717595D02*
X168826332Y-56717595D01*
X169435856Y-57517595D02*
X169435856Y-57098547D01*
X169435856Y-57098547D02*
X169397761Y-57022357D01*
X169397761Y-57022357D02*
X169321570Y-56984261D01*
X169321570Y-56984261D02*
X169169189Y-56984261D01*
X169169189Y-56984261D02*
X169092999Y-57022357D01*
X169435856Y-57479500D02*
X169359665Y-57517595D01*
X169359665Y-57517595D02*
X169169189Y-57517595D01*
X169169189Y-57517595D02*
X169092999Y-57479500D01*
X169092999Y-57479500D02*
X169054903Y-57403309D01*
X169054903Y-57403309D02*
X169054903Y-57327119D01*
X169054903Y-57327119D02*
X169092999Y-57250928D01*
X169092999Y-57250928D02*
X169169189Y-57212833D01*
X169169189Y-57212833D02*
X169359665Y-57212833D01*
X169359665Y-57212833D02*
X169435856Y-57174738D01*
X169816809Y-57517595D02*
X169816809Y-56717595D01*
X170159666Y-57517595D02*
X170159666Y-57098547D01*
X170159666Y-57098547D02*
X170121571Y-57022357D01*
X170121571Y-57022357D02*
X170045380Y-56984261D01*
X170045380Y-56984261D02*
X169931094Y-56984261D01*
X169931094Y-56984261D02*
X169854904Y-57022357D01*
X169854904Y-57022357D02*
X169816809Y-57060452D01*
X170883476Y-57517595D02*
X170883476Y-57098547D01*
X170883476Y-57098547D02*
X170845381Y-57022357D01*
X170845381Y-57022357D02*
X170769190Y-56984261D01*
X170769190Y-56984261D02*
X170616809Y-56984261D01*
X170616809Y-56984261D02*
X170540619Y-57022357D01*
X170883476Y-57479500D02*
X170807285Y-57517595D01*
X170807285Y-57517595D02*
X170616809Y-57517595D01*
X170616809Y-57517595D02*
X170540619Y-57479500D01*
X170540619Y-57479500D02*
X170502523Y-57403309D01*
X170502523Y-57403309D02*
X170502523Y-57327119D01*
X170502523Y-57327119D02*
X170540619Y-57250928D01*
X170540619Y-57250928D02*
X170616809Y-57212833D01*
X170616809Y-57212833D02*
X170807285Y-57212833D01*
X170807285Y-57212833D02*
X170883476Y-57174738D01*
X171607286Y-57517595D02*
X171607286Y-56717595D01*
X171607286Y-57479500D02*
X171531095Y-57517595D01*
X171531095Y-57517595D02*
X171378714Y-57517595D01*
X171378714Y-57517595D02*
X171302524Y-57479500D01*
X171302524Y-57479500D02*
X171264429Y-57441404D01*
X171264429Y-57441404D02*
X171226333Y-57365214D01*
X171226333Y-57365214D02*
X171226333Y-57136642D01*
X171226333Y-57136642D02*
X171264429Y-57060452D01*
X171264429Y-57060452D02*
X171302524Y-57022357D01*
X171302524Y-57022357D02*
X171378714Y-56984261D01*
X171378714Y-56984261D02*
X171531095Y-56984261D01*
X171531095Y-56984261D02*
X171607286Y-57022357D01*
X162578712Y-58805595D02*
X162578712Y-58005595D01*
X162578712Y-58005595D02*
X162769188Y-58005595D01*
X162769188Y-58005595D02*
X162883474Y-58043690D01*
X162883474Y-58043690D02*
X162959664Y-58119880D01*
X162959664Y-58119880D02*
X162997759Y-58196071D01*
X162997759Y-58196071D02*
X163035855Y-58348452D01*
X163035855Y-58348452D02*
X163035855Y-58462738D01*
X163035855Y-58462738D02*
X162997759Y-58615119D01*
X162997759Y-58615119D02*
X162959664Y-58691309D01*
X162959664Y-58691309D02*
X162883474Y-58767500D01*
X162883474Y-58767500D02*
X162769188Y-58805595D01*
X162769188Y-58805595D02*
X162578712Y-58805595D01*
X163683474Y-58767500D02*
X163607283Y-58805595D01*
X163607283Y-58805595D02*
X163454902Y-58805595D01*
X163454902Y-58805595D02*
X163378712Y-58767500D01*
X163378712Y-58767500D02*
X163340616Y-58691309D01*
X163340616Y-58691309D02*
X163340616Y-58386547D01*
X163340616Y-58386547D02*
X163378712Y-58310357D01*
X163378712Y-58310357D02*
X163454902Y-58272261D01*
X163454902Y-58272261D02*
X163607283Y-58272261D01*
X163607283Y-58272261D02*
X163683474Y-58310357D01*
X163683474Y-58310357D02*
X163721569Y-58386547D01*
X163721569Y-58386547D02*
X163721569Y-58462738D01*
X163721569Y-58462738D02*
X163340616Y-58538928D01*
X164369188Y-58767500D02*
X164292997Y-58805595D01*
X164292997Y-58805595D02*
X164140616Y-58805595D01*
X164140616Y-58805595D02*
X164064426Y-58767500D01*
X164064426Y-58767500D02*
X164026330Y-58691309D01*
X164026330Y-58691309D02*
X164026330Y-58386547D01*
X164026330Y-58386547D02*
X164064426Y-58310357D01*
X164064426Y-58310357D02*
X164140616Y-58272261D01*
X164140616Y-58272261D02*
X164292997Y-58272261D01*
X164292997Y-58272261D02*
X164369188Y-58310357D01*
X164369188Y-58310357D02*
X164407283Y-58386547D01*
X164407283Y-58386547D02*
X164407283Y-58462738D01*
X164407283Y-58462738D02*
X164026330Y-58538928D01*
X164750140Y-58272261D02*
X164750140Y-59072261D01*
X164750140Y-58310357D02*
X164826330Y-58272261D01*
X164826330Y-58272261D02*
X164978711Y-58272261D01*
X164978711Y-58272261D02*
X165054902Y-58310357D01*
X165054902Y-58310357D02*
X165092997Y-58348452D01*
X165092997Y-58348452D02*
X165131092Y-58424642D01*
X165131092Y-58424642D02*
X165131092Y-58653214D01*
X165131092Y-58653214D02*
X165092997Y-58729404D01*
X165092997Y-58729404D02*
X165054902Y-58767500D01*
X165054902Y-58767500D02*
X164978711Y-58805595D01*
X164978711Y-58805595D02*
X164826330Y-58805595D01*
X164826330Y-58805595D02*
X164750140Y-58767500D01*
X165359664Y-58272261D02*
X165664426Y-58272261D01*
X165473950Y-58005595D02*
X165473950Y-58691309D01*
X165473950Y-58691309D02*
X165512045Y-58767500D01*
X165512045Y-58767500D02*
X165588235Y-58805595D01*
X165588235Y-58805595D02*
X165664426Y-58805595D01*
X165931093Y-58805595D02*
X165931093Y-58272261D01*
X165931093Y-58005595D02*
X165892997Y-58043690D01*
X165892997Y-58043690D02*
X165931093Y-58081785D01*
X165931093Y-58081785D02*
X165969188Y-58043690D01*
X165969188Y-58043690D02*
X165931093Y-58005595D01*
X165931093Y-58005595D02*
X165931093Y-58081785D01*
X167340616Y-58043690D02*
X167264426Y-58005595D01*
X167264426Y-58005595D02*
X167150140Y-58005595D01*
X167150140Y-58005595D02*
X167035854Y-58043690D01*
X167035854Y-58043690D02*
X166959664Y-58119880D01*
X166959664Y-58119880D02*
X166921569Y-58196071D01*
X166921569Y-58196071D02*
X166883473Y-58348452D01*
X166883473Y-58348452D02*
X166883473Y-58462738D01*
X166883473Y-58462738D02*
X166921569Y-58615119D01*
X166921569Y-58615119D02*
X166959664Y-58691309D01*
X166959664Y-58691309D02*
X167035854Y-58767500D01*
X167035854Y-58767500D02*
X167150140Y-58805595D01*
X167150140Y-58805595D02*
X167226331Y-58805595D01*
X167226331Y-58805595D02*
X167340616Y-58767500D01*
X167340616Y-58767500D02*
X167378712Y-58729404D01*
X167378712Y-58729404D02*
X167378712Y-58462738D01*
X167378712Y-58462738D02*
X167226331Y-58462738D01*
X168064426Y-58805595D02*
X168064426Y-58386547D01*
X168064426Y-58386547D02*
X168026331Y-58310357D01*
X168026331Y-58310357D02*
X167950140Y-58272261D01*
X167950140Y-58272261D02*
X167797759Y-58272261D01*
X167797759Y-58272261D02*
X167721569Y-58310357D01*
X168064426Y-58767500D02*
X167988235Y-58805595D01*
X167988235Y-58805595D02*
X167797759Y-58805595D01*
X167797759Y-58805595D02*
X167721569Y-58767500D01*
X167721569Y-58767500D02*
X167683473Y-58691309D01*
X167683473Y-58691309D02*
X167683473Y-58615119D01*
X167683473Y-58615119D02*
X167721569Y-58538928D01*
X167721569Y-58538928D02*
X167797759Y-58500833D01*
X167797759Y-58500833D02*
X167988235Y-58500833D01*
X167988235Y-58500833D02*
X168064426Y-58462738D01*
X168788236Y-58272261D02*
X168788236Y-58805595D01*
X168445379Y-58272261D02*
X168445379Y-58691309D01*
X168445379Y-58691309D02*
X168483474Y-58767500D01*
X168483474Y-58767500D02*
X168559664Y-58805595D01*
X168559664Y-58805595D02*
X168673950Y-58805595D01*
X168673950Y-58805595D02*
X168750141Y-58767500D01*
X168750141Y-58767500D02*
X168788236Y-58729404D01*
X169054903Y-58272261D02*
X169359665Y-58272261D01*
X169169189Y-58005595D02*
X169169189Y-58691309D01*
X169169189Y-58691309D02*
X169207284Y-58767500D01*
X169207284Y-58767500D02*
X169283474Y-58805595D01*
X169283474Y-58805595D02*
X169359665Y-58805595D01*
X169969189Y-58805595D02*
X169969189Y-58386547D01*
X169969189Y-58386547D02*
X169931094Y-58310357D01*
X169931094Y-58310357D02*
X169854903Y-58272261D01*
X169854903Y-58272261D02*
X169702522Y-58272261D01*
X169702522Y-58272261D02*
X169626332Y-58310357D01*
X169969189Y-58767500D02*
X169892998Y-58805595D01*
X169892998Y-58805595D02*
X169702522Y-58805595D01*
X169702522Y-58805595D02*
X169626332Y-58767500D01*
X169626332Y-58767500D02*
X169588236Y-58691309D01*
X169588236Y-58691309D02*
X169588236Y-58615119D01*
X169588236Y-58615119D02*
X169626332Y-58538928D01*
X169626332Y-58538928D02*
X169702522Y-58500833D01*
X169702522Y-58500833D02*
X169892998Y-58500833D01*
X169892998Y-58500833D02*
X169969189Y-58462738D01*
X170350142Y-58805595D02*
X170350142Y-58272261D01*
X170350142Y-58348452D02*
X170388237Y-58310357D01*
X170388237Y-58310357D02*
X170464427Y-58272261D01*
X170464427Y-58272261D02*
X170578713Y-58272261D01*
X170578713Y-58272261D02*
X170654904Y-58310357D01*
X170654904Y-58310357D02*
X170692999Y-58386547D01*
X170692999Y-58386547D02*
X170692999Y-58805595D01*
X170692999Y-58386547D02*
X170731094Y-58310357D01*
X170731094Y-58310357D02*
X170807285Y-58272261D01*
X170807285Y-58272261D02*
X170921570Y-58272261D01*
X170921570Y-58272261D02*
X170997761Y-58310357D01*
X170997761Y-58310357D02*
X171035856Y-58386547D01*
X171035856Y-58386547D02*
X171035856Y-58805595D01*
X162845378Y-59674547D02*
X162959664Y-59712642D01*
X162959664Y-59712642D02*
X162997759Y-59750738D01*
X162997759Y-59750738D02*
X163035855Y-59826928D01*
X163035855Y-59826928D02*
X163035855Y-59941214D01*
X163035855Y-59941214D02*
X162997759Y-60017404D01*
X162997759Y-60017404D02*
X162959664Y-60055500D01*
X162959664Y-60055500D02*
X162883474Y-60093595D01*
X162883474Y-60093595D02*
X162578712Y-60093595D01*
X162578712Y-60093595D02*
X162578712Y-59293595D01*
X162578712Y-59293595D02*
X162845378Y-59293595D01*
X162845378Y-59293595D02*
X162921569Y-59331690D01*
X162921569Y-59331690D02*
X162959664Y-59369785D01*
X162959664Y-59369785D02*
X162997759Y-59445976D01*
X162997759Y-59445976D02*
X162997759Y-59522166D01*
X162997759Y-59522166D02*
X162959664Y-59598357D01*
X162959664Y-59598357D02*
X162921569Y-59636452D01*
X162921569Y-59636452D02*
X162845378Y-59674547D01*
X162845378Y-59674547D02*
X162578712Y-59674547D01*
X163721569Y-59560261D02*
X163721569Y-60093595D01*
X163378712Y-59560261D02*
X163378712Y-59979309D01*
X163378712Y-59979309D02*
X163416807Y-60055500D01*
X163416807Y-60055500D02*
X163492997Y-60093595D01*
X163492997Y-60093595D02*
X163607283Y-60093595D01*
X163607283Y-60093595D02*
X163683474Y-60055500D01*
X163683474Y-60055500D02*
X163721569Y-60017404D01*
X164216807Y-60093595D02*
X164140617Y-60055500D01*
X164140617Y-60055500D02*
X164102522Y-59979309D01*
X164102522Y-59979309D02*
X164102522Y-59293595D01*
X164635855Y-60093595D02*
X164559665Y-60055500D01*
X164559665Y-60055500D02*
X164521570Y-60017404D01*
X164521570Y-60017404D02*
X164483474Y-59941214D01*
X164483474Y-59941214D02*
X164483474Y-59712642D01*
X164483474Y-59712642D02*
X164521570Y-59636452D01*
X164521570Y-59636452D02*
X164559665Y-59598357D01*
X164559665Y-59598357D02*
X164635855Y-59560261D01*
X164635855Y-59560261D02*
X164750141Y-59560261D01*
X164750141Y-59560261D02*
X164826332Y-59598357D01*
X164826332Y-59598357D02*
X164864427Y-59636452D01*
X164864427Y-59636452D02*
X164902522Y-59712642D01*
X164902522Y-59712642D02*
X164902522Y-59941214D01*
X164902522Y-59941214D02*
X164864427Y-60017404D01*
X164864427Y-60017404D02*
X164826332Y-60055500D01*
X164826332Y-60055500D02*
X164750141Y-60093595D01*
X164750141Y-60093595D02*
X164635855Y-60093595D01*
X165588237Y-59560261D02*
X165588237Y-60093595D01*
X165245380Y-59560261D02*
X165245380Y-59979309D01*
X165245380Y-59979309D02*
X165283475Y-60055500D01*
X165283475Y-60055500D02*
X165359665Y-60093595D01*
X165359665Y-60093595D02*
X165473951Y-60093595D01*
X165473951Y-60093595D02*
X165550142Y-60055500D01*
X165550142Y-60055500D02*
X165588237Y-60017404D01*
X166464428Y-59293595D02*
X166921571Y-59293595D01*
X166692999Y-60093595D02*
X166692999Y-59293595D01*
X167188238Y-60093595D02*
X167188238Y-59560261D01*
X167188238Y-59293595D02*
X167150142Y-59331690D01*
X167150142Y-59331690D02*
X167188238Y-59369785D01*
X167188238Y-59369785D02*
X167226333Y-59331690D01*
X167226333Y-59331690D02*
X167188238Y-59293595D01*
X167188238Y-59293595D02*
X167188238Y-59369785D01*
X167912047Y-60093595D02*
X167912047Y-59674547D01*
X167912047Y-59674547D02*
X167873952Y-59598357D01*
X167873952Y-59598357D02*
X167797761Y-59560261D01*
X167797761Y-59560261D02*
X167645380Y-59560261D01*
X167645380Y-59560261D02*
X167569190Y-59598357D01*
X167912047Y-60055500D02*
X167835856Y-60093595D01*
X167835856Y-60093595D02*
X167645380Y-60093595D01*
X167645380Y-60093595D02*
X167569190Y-60055500D01*
X167569190Y-60055500D02*
X167531094Y-59979309D01*
X167531094Y-59979309D02*
X167531094Y-59903119D01*
X167531094Y-59903119D02*
X167569190Y-59826928D01*
X167569190Y-59826928D02*
X167645380Y-59788833D01*
X167645380Y-59788833D02*
X167835856Y-59788833D01*
X167835856Y-59788833D02*
X167912047Y-59750738D01*
X168293000Y-59560261D02*
X168293000Y-60093595D01*
X168293000Y-59636452D02*
X168331095Y-59598357D01*
X168331095Y-59598357D02*
X168407285Y-59560261D01*
X168407285Y-59560261D02*
X168521571Y-59560261D01*
X168521571Y-59560261D02*
X168597762Y-59598357D01*
X168597762Y-59598357D02*
X168635857Y-59674547D01*
X168635857Y-59674547D02*
X168635857Y-60093595D01*
D11*
X169677295Y-100930274D02*
X169105866Y-102454084D01*
X169105866Y-102454084D02*
X168534438Y-100930274D01*
X168534438Y-103406464D02*
X168439200Y-103501702D01*
X168439200Y-103501702D02*
X168343961Y-103406464D01*
X168343961Y-103406464D02*
X168439200Y-103311226D01*
X168439200Y-103311226D02*
X168534438Y-103406464D01*
X168534438Y-103406464D02*
X168343961Y-103406464D01*
X169582057Y-103406464D02*
X169486819Y-103501702D01*
X169486819Y-103501702D02*
X169391580Y-103406464D01*
X169391580Y-103406464D02*
X169486819Y-103311226D01*
X169486819Y-103311226D02*
X169582057Y-103406464D01*
X169582057Y-103406464D02*
X169391580Y-103406464D01*
X167582057Y-104168369D02*
X167677295Y-104263607D01*
X167677295Y-104263607D02*
X167963009Y-104454083D01*
X167963009Y-104454083D02*
X168153485Y-104549321D01*
X168153485Y-104549321D02*
X168439200Y-104644559D01*
X168439200Y-104644559D02*
X168915390Y-104739797D01*
X168915390Y-104739797D02*
X169296342Y-104739797D01*
X169296342Y-104739797D02*
X169772533Y-104644559D01*
X169772533Y-104644559D02*
X170058247Y-104549321D01*
X170058247Y-104549321D02*
X170248723Y-104454083D01*
X170248723Y-104454083D02*
X170534438Y-104263607D01*
X170534438Y-104263607D02*
X170629676Y-104168369D01*
X163007922Y-60845819D02*
X163341255Y-61845819D01*
X163341255Y-61845819D02*
X163674588Y-60845819D01*
X164388874Y-61798200D02*
X164293636Y-61845819D01*
X164293636Y-61845819D02*
X164103160Y-61845819D01*
X164103160Y-61845819D02*
X164007922Y-61798200D01*
X164007922Y-61798200D02*
X163960303Y-61702961D01*
X163960303Y-61702961D02*
X163960303Y-61322009D01*
X163960303Y-61322009D02*
X164007922Y-61226771D01*
X164007922Y-61226771D02*
X164103160Y-61179152D01*
X164103160Y-61179152D02*
X164293636Y-61179152D01*
X164293636Y-61179152D02*
X164388874Y-61226771D01*
X164388874Y-61226771D02*
X164436493Y-61322009D01*
X164436493Y-61322009D02*
X164436493Y-61417247D01*
X164436493Y-61417247D02*
X163960303Y-61512485D01*
X164865065Y-61845819D02*
X164865065Y-61179152D01*
X164865065Y-61369628D02*
X164912684Y-61274390D01*
X164912684Y-61274390D02*
X164960303Y-61226771D01*
X164960303Y-61226771D02*
X165055541Y-61179152D01*
X165055541Y-61179152D02*
X165150779Y-61179152D01*
X165436494Y-61798200D02*
X165531732Y-61845819D01*
X165531732Y-61845819D02*
X165722208Y-61845819D01*
X165722208Y-61845819D02*
X165817446Y-61798200D01*
X165817446Y-61798200D02*
X165865065Y-61702961D01*
X165865065Y-61702961D02*
X165865065Y-61655342D01*
X165865065Y-61655342D02*
X165817446Y-61560104D01*
X165817446Y-61560104D02*
X165722208Y-61512485D01*
X165722208Y-61512485D02*
X165579351Y-61512485D01*
X165579351Y-61512485D02*
X165484113Y-61464866D01*
X165484113Y-61464866D02*
X165436494Y-61369628D01*
X165436494Y-61369628D02*
X165436494Y-61322009D01*
X165436494Y-61322009D02*
X165484113Y-61226771D01*
X165484113Y-61226771D02*
X165579351Y-61179152D01*
X165579351Y-61179152D02*
X165722208Y-61179152D01*
X165722208Y-61179152D02*
X165817446Y-61226771D01*
X166293637Y-61845819D02*
X166293637Y-61179152D01*
X166293637Y-60845819D02*
X166246018Y-60893438D01*
X166246018Y-60893438D02*
X166293637Y-60941057D01*
X166293637Y-60941057D02*
X166341256Y-60893438D01*
X166341256Y-60893438D02*
X166293637Y-60845819D01*
X166293637Y-60845819D02*
X166293637Y-60941057D01*
X166912684Y-61845819D02*
X166817446Y-61798200D01*
X166817446Y-61798200D02*
X166769827Y-61750580D01*
X166769827Y-61750580D02*
X166722208Y-61655342D01*
X166722208Y-61655342D02*
X166722208Y-61369628D01*
X166722208Y-61369628D02*
X166769827Y-61274390D01*
X166769827Y-61274390D02*
X166817446Y-61226771D01*
X166817446Y-61226771D02*
X166912684Y-61179152D01*
X166912684Y-61179152D02*
X167055541Y-61179152D01*
X167055541Y-61179152D02*
X167150779Y-61226771D01*
X167150779Y-61226771D02*
X167198398Y-61274390D01*
X167198398Y-61274390D02*
X167246017Y-61369628D01*
X167246017Y-61369628D02*
X167246017Y-61655342D01*
X167246017Y-61655342D02*
X167198398Y-61750580D01*
X167198398Y-61750580D02*
X167150779Y-61798200D01*
X167150779Y-61798200D02*
X167055541Y-61845819D01*
X167055541Y-61845819D02*
X166912684Y-61845819D01*
X167674589Y-61179152D02*
X167674589Y-61845819D01*
X167674589Y-61274390D02*
X167722208Y-61226771D01*
X167722208Y-61226771D02*
X167817446Y-61179152D01*
X167817446Y-61179152D02*
X167960303Y-61179152D01*
X167960303Y-61179152D02*
X168055541Y-61226771D01*
X168055541Y-61226771D02*
X168103160Y-61322009D01*
X168103160Y-61322009D02*
X168103160Y-61845819D01*
X169246018Y-60845819D02*
X169865065Y-60845819D01*
X169865065Y-60845819D02*
X169531732Y-61226771D01*
X169531732Y-61226771D02*
X169674589Y-61226771D01*
X169674589Y-61226771D02*
X169769827Y-61274390D01*
X169769827Y-61274390D02*
X169817446Y-61322009D01*
X169817446Y-61322009D02*
X169865065Y-61417247D01*
X169865065Y-61417247D02*
X169865065Y-61655342D01*
X169865065Y-61655342D02*
X169817446Y-61750580D01*
X169817446Y-61750580D02*
X169769827Y-61798200D01*
X169769827Y-61798200D02*
X169674589Y-61845819D01*
X169674589Y-61845819D02*
X169388875Y-61845819D01*
X169388875Y-61845819D02*
X169293637Y-61798200D01*
X169293637Y-61798200D02*
X169246018Y-61750580D01*
X160610779Y-50161819D02*
X160610779Y-49161819D01*
X160610779Y-49161819D02*
X161182207Y-50161819D01*
X161182207Y-50161819D02*
X161182207Y-49161819D01*
X161801255Y-50161819D02*
X161706017Y-50114200D01*
X161706017Y-50114200D02*
X161658398Y-50066580D01*
X161658398Y-50066580D02*
X161610779Y-49971342D01*
X161610779Y-49971342D02*
X161610779Y-49685628D01*
X161610779Y-49685628D02*
X161658398Y-49590390D01*
X161658398Y-49590390D02*
X161706017Y-49542771D01*
X161706017Y-49542771D02*
X161801255Y-49495152D01*
X161801255Y-49495152D02*
X161944112Y-49495152D01*
X161944112Y-49495152D02*
X162039350Y-49542771D01*
X162039350Y-49542771D02*
X162086969Y-49590390D01*
X162086969Y-49590390D02*
X162134588Y-49685628D01*
X162134588Y-49685628D02*
X162134588Y-49971342D01*
X162134588Y-49971342D02*
X162086969Y-50066580D01*
X162086969Y-50066580D02*
X162039350Y-50114200D01*
X162039350Y-50114200D02*
X161944112Y-50161819D01*
X161944112Y-50161819D02*
X161801255Y-50161819D01*
X162467922Y-49495152D02*
X162706017Y-50161819D01*
X162706017Y-50161819D02*
X162944112Y-49495152D01*
X164610779Y-50161819D02*
X164039351Y-50161819D01*
X164325065Y-50161819D02*
X164325065Y-49161819D01*
X164325065Y-49161819D02*
X164229827Y-49304676D01*
X164229827Y-49304676D02*
X164134589Y-49399914D01*
X164134589Y-49399914D02*
X164039351Y-49447533D01*
X165467922Y-49161819D02*
X165277446Y-49161819D01*
X165277446Y-49161819D02*
X165182208Y-49209438D01*
X165182208Y-49209438D02*
X165134589Y-49257057D01*
X165134589Y-49257057D02*
X165039351Y-49399914D01*
X165039351Y-49399914D02*
X164991732Y-49590390D01*
X164991732Y-49590390D02*
X164991732Y-49971342D01*
X164991732Y-49971342D02*
X165039351Y-50066580D01*
X165039351Y-50066580D02*
X165086970Y-50114200D01*
X165086970Y-50114200D02*
X165182208Y-50161819D01*
X165182208Y-50161819D02*
X165372684Y-50161819D01*
X165372684Y-50161819D02*
X165467922Y-50114200D01*
X165467922Y-50114200D02*
X165515541Y-50066580D01*
X165515541Y-50066580D02*
X165563160Y-49971342D01*
X165563160Y-49971342D02*
X165563160Y-49733247D01*
X165563160Y-49733247D02*
X165515541Y-49638009D01*
X165515541Y-49638009D02*
X165467922Y-49590390D01*
X165467922Y-49590390D02*
X165372684Y-49542771D01*
X165372684Y-49542771D02*
X165182208Y-49542771D01*
X165182208Y-49542771D02*
X165086970Y-49590390D01*
X165086970Y-49590390D02*
X165039351Y-49638009D01*
X165039351Y-49638009D02*
X164991732Y-49733247D01*
X166039351Y-50114200D02*
X166039351Y-50161819D01*
X166039351Y-50161819D02*
X165991732Y-50257057D01*
X165991732Y-50257057D02*
X165944113Y-50304676D01*
X167182208Y-49257057D02*
X167229827Y-49209438D01*
X167229827Y-49209438D02*
X167325065Y-49161819D01*
X167325065Y-49161819D02*
X167563160Y-49161819D01*
X167563160Y-49161819D02*
X167658398Y-49209438D01*
X167658398Y-49209438D02*
X167706017Y-49257057D01*
X167706017Y-49257057D02*
X167753636Y-49352295D01*
X167753636Y-49352295D02*
X167753636Y-49447533D01*
X167753636Y-49447533D02*
X167706017Y-49590390D01*
X167706017Y-49590390D02*
X167134589Y-50161819D01*
X167134589Y-50161819D02*
X167753636Y-50161819D01*
X168372684Y-49161819D02*
X168467922Y-49161819D01*
X168467922Y-49161819D02*
X168563160Y-49209438D01*
X168563160Y-49209438D02*
X168610779Y-49257057D01*
X168610779Y-49257057D02*
X168658398Y-49352295D01*
X168658398Y-49352295D02*
X168706017Y-49542771D01*
X168706017Y-49542771D02*
X168706017Y-49780866D01*
X168706017Y-49780866D02*
X168658398Y-49971342D01*
X168658398Y-49971342D02*
X168610779Y-50066580D01*
X168610779Y-50066580D02*
X168563160Y-50114200D01*
X168563160Y-50114200D02*
X168467922Y-50161819D01*
X168467922Y-50161819D02*
X168372684Y-50161819D01*
X168372684Y-50161819D02*
X168277446Y-50114200D01*
X168277446Y-50114200D02*
X168229827Y-50066580D01*
X168229827Y-50066580D02*
X168182208Y-49971342D01*
X168182208Y-49971342D02*
X168134589Y-49780866D01*
X168134589Y-49780866D02*
X168134589Y-49542771D01*
X168134589Y-49542771D02*
X168182208Y-49352295D01*
X168182208Y-49352295D02*
X168229827Y-49257057D01*
X168229827Y-49257057D02*
X168277446Y-49209438D01*
X168277446Y-49209438D02*
X168372684Y-49161819D01*
X169086970Y-49257057D02*
X169134589Y-49209438D01*
X169134589Y-49209438D02*
X169229827Y-49161819D01*
X169229827Y-49161819D02*
X169467922Y-49161819D01*
X169467922Y-49161819D02*
X169563160Y-49209438D01*
X169563160Y-49209438D02*
X169610779Y-49257057D01*
X169610779Y-49257057D02*
X169658398Y-49352295D01*
X169658398Y-49352295D02*
X169658398Y-49447533D01*
X169658398Y-49447533D02*
X169610779Y-49590390D01*
X169610779Y-49590390D02*
X169039351Y-50161819D01*
X169039351Y-50161819D02*
X169658398Y-50161819D01*
X169991732Y-49161819D02*
X170610779Y-49161819D01*
X170610779Y-49161819D02*
X170277446Y-49542771D01*
X170277446Y-49542771D02*
X170420303Y-49542771D01*
X170420303Y-49542771D02*
X170515541Y-49590390D01*
X170515541Y-49590390D02*
X170563160Y-49638009D01*
X170563160Y-49638009D02*
X170610779Y-49733247D01*
X170610779Y-49733247D02*
X170610779Y-49971342D01*
X170610779Y-49971342D02*
X170563160Y-50066580D01*
X170563160Y-50066580D02*
X170515541Y-50114200D01*
X170515541Y-50114200D02*
X170420303Y-50161819D01*
X170420303Y-50161819D02*
X170134589Y-50161819D01*
X170134589Y-50161819D02*
X170039351Y-50114200D01*
X170039351Y-50114200D02*
X169991732Y-50066580D01*
D12*
X130444419Y-93310972D02*
X131444419Y-92977639D01*
X131444419Y-92977639D02*
X130444419Y-92644306D01*
X131444419Y-92310972D02*
X130777752Y-92310972D01*
X130444419Y-92310972D02*
X130492038Y-92358591D01*
X130492038Y-92358591D02*
X130539657Y-92310972D01*
X130539657Y-92310972D02*
X130492038Y-92263353D01*
X130492038Y-92263353D02*
X130444419Y-92310972D01*
X130444419Y-92310972D02*
X130539657Y-92310972D01*
X130777752Y-91834782D02*
X131444419Y-91834782D01*
X130872990Y-91834782D02*
X130825371Y-91787163D01*
X130825371Y-91787163D02*
X130777752Y-91691925D01*
X130777752Y-91691925D02*
X130777752Y-91549068D01*
X130777752Y-91549068D02*
X130825371Y-91453830D01*
X130825371Y-91453830D02*
X130920609Y-91406211D01*
X130920609Y-91406211D02*
X131444419Y-91406211D01*
X137350038Y-92898306D02*
X137302419Y-92993544D01*
X137302419Y-92993544D02*
X137302419Y-93136401D01*
X137302419Y-93136401D02*
X137350038Y-93279258D01*
X137350038Y-93279258D02*
X137445276Y-93374496D01*
X137445276Y-93374496D02*
X137540514Y-93422115D01*
X137540514Y-93422115D02*
X137730990Y-93469734D01*
X137730990Y-93469734D02*
X137873847Y-93469734D01*
X137873847Y-93469734D02*
X138064323Y-93422115D01*
X138064323Y-93422115D02*
X138159561Y-93374496D01*
X138159561Y-93374496D02*
X138254800Y-93279258D01*
X138254800Y-93279258D02*
X138302419Y-93136401D01*
X138302419Y-93136401D02*
X138302419Y-93041163D01*
X138302419Y-93041163D02*
X138254800Y-92898306D01*
X138254800Y-92898306D02*
X138207180Y-92850687D01*
X138207180Y-92850687D02*
X137873847Y-92850687D01*
X137873847Y-92850687D02*
X137873847Y-93041163D01*
X138302419Y-92422115D02*
X137302419Y-92422115D01*
X137302419Y-92422115D02*
X138302419Y-91850687D01*
X138302419Y-91850687D02*
X137302419Y-91850687D01*
X138302419Y-91374496D02*
X137302419Y-91374496D01*
X137302419Y-91374496D02*
X137302419Y-91136401D01*
X137302419Y-91136401D02*
X137350038Y-90993544D01*
X137350038Y-90993544D02*
X137445276Y-90898306D01*
X137445276Y-90898306D02*
X137540514Y-90850687D01*
X137540514Y-90850687D02*
X137730990Y-90803068D01*
X137730990Y-90803068D02*
X137873847Y-90803068D01*
X137873847Y-90803068D02*
X138064323Y-90850687D01*
X138064323Y-90850687D02*
X138159561Y-90898306D01*
X138159561Y-90898306D02*
X138254800Y-90993544D01*
X138254800Y-90993544D02*
X138302419Y-91136401D01*
X138302419Y-91136401D02*
X138302419Y-91374496D01*
D11*
X151685714Y-58589104D02*
X152161904Y-58589104D01*
X151590476Y-58874819D02*
X151923809Y-57874819D01*
X151923809Y-57874819D02*
X152257142Y-58874819D01*
X153114285Y-58874819D02*
X152542857Y-58874819D01*
X152828571Y-58874819D02*
X152828571Y-57874819D01*
X152828571Y-57874819D02*
X152733333Y-58017676D01*
X152733333Y-58017676D02*
X152638095Y-58112914D01*
X152638095Y-58112914D02*
X152542857Y-58160533D01*
D12*
X162228884Y-99567419D02*
X162228884Y-98567419D01*
X162228884Y-98567419D02*
X162466979Y-98567419D01*
X162466979Y-98567419D02*
X162609836Y-98615038D01*
X162609836Y-98615038D02*
X162705074Y-98710276D01*
X162705074Y-98710276D02*
X162752693Y-98805514D01*
X162752693Y-98805514D02*
X162800312Y-98995990D01*
X162800312Y-98995990D02*
X162800312Y-99138847D01*
X162800312Y-99138847D02*
X162752693Y-99329323D01*
X162752693Y-99329323D02*
X162705074Y-99424561D01*
X162705074Y-99424561D02*
X162609836Y-99519800D01*
X162609836Y-99519800D02*
X162466979Y-99567419D01*
X162466979Y-99567419D02*
X162228884Y-99567419D01*
X163752693Y-99567419D02*
X163181265Y-99567419D01*
X163466979Y-99567419D02*
X163466979Y-98567419D01*
X163466979Y-98567419D02*
X163371741Y-98710276D01*
X163371741Y-98710276D02*
X163276503Y-98805514D01*
X163276503Y-98805514D02*
X163181265Y-98853133D01*
X164086027Y-98567419D02*
X164705074Y-98567419D01*
X164705074Y-98567419D02*
X164371741Y-98948371D01*
X164371741Y-98948371D02*
X164514598Y-98948371D01*
X164514598Y-98948371D02*
X164609836Y-98995990D01*
X164609836Y-98995990D02*
X164657455Y-99043609D01*
X164657455Y-99043609D02*
X164705074Y-99138847D01*
X164705074Y-99138847D02*
X164705074Y-99376942D01*
X164705074Y-99376942D02*
X164657455Y-99472180D01*
X164657455Y-99472180D02*
X164609836Y-99519800D01*
X164609836Y-99519800D02*
X164514598Y-99567419D01*
X164514598Y-99567419D02*
X164228884Y-99567419D01*
X164228884Y-99567419D02*
X164133646Y-99519800D01*
X164133646Y-99519800D02*
X164086027Y-99472180D01*
X162752693Y-65595038D02*
X162657455Y-65547419D01*
X162657455Y-65547419D02*
X162514598Y-65547419D01*
X162514598Y-65547419D02*
X162371741Y-65595038D01*
X162371741Y-65595038D02*
X162276503Y-65690276D01*
X162276503Y-65690276D02*
X162228884Y-65785514D01*
X162228884Y-65785514D02*
X162181265Y-65975990D01*
X162181265Y-65975990D02*
X162181265Y-66118847D01*
X162181265Y-66118847D02*
X162228884Y-66309323D01*
X162228884Y-66309323D02*
X162276503Y-66404561D01*
X162276503Y-66404561D02*
X162371741Y-66499800D01*
X162371741Y-66499800D02*
X162514598Y-66547419D01*
X162514598Y-66547419D02*
X162609836Y-66547419D01*
X162609836Y-66547419D02*
X162752693Y-66499800D01*
X162752693Y-66499800D02*
X162800312Y-66452180D01*
X162800312Y-66452180D02*
X162800312Y-66118847D01*
X162800312Y-66118847D02*
X162609836Y-66118847D01*
X163228884Y-66547419D02*
X163228884Y-65547419D01*
X163228884Y-65547419D02*
X163800312Y-66547419D01*
X163800312Y-66547419D02*
X163800312Y-65547419D01*
X164276503Y-66547419D02*
X164276503Y-65547419D01*
X164276503Y-65547419D02*
X164514598Y-65547419D01*
X164514598Y-65547419D02*
X164657455Y-65595038D01*
X164657455Y-65595038D02*
X164752693Y-65690276D01*
X164752693Y-65690276D02*
X164800312Y-65785514D01*
X164800312Y-65785514D02*
X164847931Y-65975990D01*
X164847931Y-65975990D02*
X164847931Y-66118847D01*
X164847931Y-66118847D02*
X164800312Y-66309323D01*
X164800312Y-66309323D02*
X164752693Y-66404561D01*
X164752693Y-66404561D02*
X164657455Y-66499800D01*
X164657455Y-66499800D02*
X164514598Y-66547419D01*
X164514598Y-66547419D02*
X164276503Y-66547419D01*
X162133646Y-96027419D02*
X162752693Y-96027419D01*
X162752693Y-96027419D02*
X162419360Y-96408371D01*
X162419360Y-96408371D02*
X162562217Y-96408371D01*
X162562217Y-96408371D02*
X162657455Y-96455990D01*
X162657455Y-96455990D02*
X162705074Y-96503609D01*
X162705074Y-96503609D02*
X162752693Y-96598847D01*
X162752693Y-96598847D02*
X162752693Y-96836942D01*
X162752693Y-96836942D02*
X162705074Y-96932180D01*
X162705074Y-96932180D02*
X162657455Y-96979800D01*
X162657455Y-96979800D02*
X162562217Y-97027419D01*
X162562217Y-97027419D02*
X162276503Y-97027419D01*
X162276503Y-97027419D02*
X162181265Y-96979800D01*
X162181265Y-96979800D02*
X162133646Y-96932180D01*
X163038408Y-96027419D02*
X163371741Y-97027419D01*
X163371741Y-97027419D02*
X163705074Y-96027419D01*
X163943170Y-96027419D02*
X164562217Y-96027419D01*
X164562217Y-96027419D02*
X164228884Y-96408371D01*
X164228884Y-96408371D02*
X164371741Y-96408371D01*
X164371741Y-96408371D02*
X164466979Y-96455990D01*
X164466979Y-96455990D02*
X164514598Y-96503609D01*
X164514598Y-96503609D02*
X164562217Y-96598847D01*
X164562217Y-96598847D02*
X164562217Y-96836942D01*
X164562217Y-96836942D02*
X164514598Y-96932180D01*
X164514598Y-96932180D02*
X164466979Y-96979800D01*
X164466979Y-96979800D02*
X164371741Y-97027419D01*
X164371741Y-97027419D02*
X164086027Y-97027419D01*
X164086027Y-97027419D02*
X163990789Y-96979800D01*
X163990789Y-96979800D02*
X163943170Y-96932180D01*
X140638884Y-91947419D02*
X140638884Y-90947419D01*
X140638884Y-90947419D02*
X140876979Y-90947419D01*
X140876979Y-90947419D02*
X141019836Y-90995038D01*
X141019836Y-90995038D02*
X141115074Y-91090276D01*
X141115074Y-91090276D02*
X141162693Y-91185514D01*
X141162693Y-91185514D02*
X141210312Y-91375990D01*
X141210312Y-91375990D02*
X141210312Y-91518847D01*
X141210312Y-91518847D02*
X141162693Y-91709323D01*
X141162693Y-91709323D02*
X141115074Y-91804561D01*
X141115074Y-91804561D02*
X141019836Y-91899800D01*
X141019836Y-91899800D02*
X140876979Y-91947419D01*
X140876979Y-91947419D02*
X140638884Y-91947419D01*
X141686503Y-91947419D02*
X141876979Y-91947419D01*
X141876979Y-91947419D02*
X141972217Y-91899800D01*
X141972217Y-91899800D02*
X142019836Y-91852180D01*
X142019836Y-91852180D02*
X142115074Y-91709323D01*
X142115074Y-91709323D02*
X142162693Y-91518847D01*
X142162693Y-91518847D02*
X142162693Y-91137895D01*
X142162693Y-91137895D02*
X142115074Y-91042657D01*
X142115074Y-91042657D02*
X142067455Y-90995038D01*
X142067455Y-90995038D02*
X141972217Y-90947419D01*
X141972217Y-90947419D02*
X141781741Y-90947419D01*
X141781741Y-90947419D02*
X141686503Y-90995038D01*
X141686503Y-90995038D02*
X141638884Y-91042657D01*
X141638884Y-91042657D02*
X141591265Y-91137895D01*
X141591265Y-91137895D02*
X141591265Y-91375990D01*
X141591265Y-91375990D02*
X141638884Y-91471228D01*
X141638884Y-91471228D02*
X141686503Y-91518847D01*
X141686503Y-91518847D02*
X141781741Y-91566466D01*
X141781741Y-91566466D02*
X141972217Y-91566466D01*
X141972217Y-91566466D02*
X142067455Y-91518847D01*
X142067455Y-91518847D02*
X142115074Y-91471228D01*
X142115074Y-91471228D02*
X142162693Y-91375990D01*
X162181265Y-76421704D02*
X162657455Y-76421704D01*
X162086027Y-76707419D02*
X162419360Y-75707419D01*
X162419360Y-75707419D02*
X162752693Y-76707419D01*
X163514598Y-75707419D02*
X163324122Y-75707419D01*
X163324122Y-75707419D02*
X163228884Y-75755038D01*
X163228884Y-75755038D02*
X163181265Y-75802657D01*
X163181265Y-75802657D02*
X163086027Y-75945514D01*
X163086027Y-75945514D02*
X163038408Y-76135990D01*
X163038408Y-76135990D02*
X163038408Y-76516942D01*
X163038408Y-76516942D02*
X163086027Y-76612180D01*
X163086027Y-76612180D02*
X163133646Y-76659800D01*
X163133646Y-76659800D02*
X163228884Y-76707419D01*
X163228884Y-76707419D02*
X163419360Y-76707419D01*
X163419360Y-76707419D02*
X163514598Y-76659800D01*
X163514598Y-76659800D02*
X163562217Y-76612180D01*
X163562217Y-76612180D02*
X163609836Y-76516942D01*
X163609836Y-76516942D02*
X163609836Y-76278847D01*
X163609836Y-76278847D02*
X163562217Y-76183609D01*
X163562217Y-76183609D02*
X163514598Y-76135990D01*
X163514598Y-76135990D02*
X163419360Y-76088371D01*
X163419360Y-76088371D02*
X163228884Y-76088371D01*
X163228884Y-76088371D02*
X163133646Y-76135990D01*
X163133646Y-76135990D02*
X163086027Y-76183609D01*
X163086027Y-76183609D02*
X163038408Y-76278847D01*
X162181265Y-91661704D02*
X162657455Y-91661704D01*
X162086027Y-91947419D02*
X162419360Y-90947419D01*
X162419360Y-90947419D02*
X162752693Y-91947419D01*
X163276503Y-90947419D02*
X163371741Y-90947419D01*
X163371741Y-90947419D02*
X163466979Y-90995038D01*
X163466979Y-90995038D02*
X163514598Y-91042657D01*
X163514598Y-91042657D02*
X163562217Y-91137895D01*
X163562217Y-91137895D02*
X163609836Y-91328371D01*
X163609836Y-91328371D02*
X163609836Y-91566466D01*
X163609836Y-91566466D02*
X163562217Y-91756942D01*
X163562217Y-91756942D02*
X163514598Y-91852180D01*
X163514598Y-91852180D02*
X163466979Y-91899800D01*
X163466979Y-91899800D02*
X163371741Y-91947419D01*
X163371741Y-91947419D02*
X163276503Y-91947419D01*
X163276503Y-91947419D02*
X163181265Y-91899800D01*
X163181265Y-91899800D02*
X163133646Y-91852180D01*
X163133646Y-91852180D02*
X163086027Y-91756942D01*
X163086027Y-91756942D02*
X163038408Y-91566466D01*
X163038408Y-91566466D02*
X163038408Y-91328371D01*
X163038408Y-91328371D02*
X163086027Y-91137895D01*
X163086027Y-91137895D02*
X163133646Y-91042657D01*
X163133646Y-91042657D02*
X163181265Y-90995038D01*
X163181265Y-90995038D02*
X163276503Y-90947419D01*
X141162693Y-70675038D02*
X141067455Y-70627419D01*
X141067455Y-70627419D02*
X140924598Y-70627419D01*
X140924598Y-70627419D02*
X140781741Y-70675038D01*
X140781741Y-70675038D02*
X140686503Y-70770276D01*
X140686503Y-70770276D02*
X140638884Y-70865514D01*
X140638884Y-70865514D02*
X140591265Y-71055990D01*
X140591265Y-71055990D02*
X140591265Y-71198847D01*
X140591265Y-71198847D02*
X140638884Y-71389323D01*
X140638884Y-71389323D02*
X140686503Y-71484561D01*
X140686503Y-71484561D02*
X140781741Y-71579800D01*
X140781741Y-71579800D02*
X140924598Y-71627419D01*
X140924598Y-71627419D02*
X141019836Y-71627419D01*
X141019836Y-71627419D02*
X141162693Y-71579800D01*
X141162693Y-71579800D02*
X141210312Y-71532180D01*
X141210312Y-71532180D02*
X141210312Y-71198847D01*
X141210312Y-71198847D02*
X141019836Y-71198847D01*
X141638884Y-71627419D02*
X141638884Y-70627419D01*
X141638884Y-70627419D02*
X142210312Y-71627419D01*
X142210312Y-71627419D02*
X142210312Y-70627419D01*
X142686503Y-71627419D02*
X142686503Y-70627419D01*
X142686503Y-70627419D02*
X142924598Y-70627419D01*
X142924598Y-70627419D02*
X143067455Y-70675038D01*
X143067455Y-70675038D02*
X143162693Y-70770276D01*
X143162693Y-70770276D02*
X143210312Y-70865514D01*
X143210312Y-70865514D02*
X143257931Y-71055990D01*
X143257931Y-71055990D02*
X143257931Y-71198847D01*
X143257931Y-71198847D02*
X143210312Y-71389323D01*
X143210312Y-71389323D02*
X143162693Y-71484561D01*
X143162693Y-71484561D02*
X143067455Y-71579800D01*
X143067455Y-71579800D02*
X142924598Y-71627419D01*
X142924598Y-71627419D02*
X142686503Y-71627419D01*
D11*
X151138095Y-98514819D02*
X151138095Y-99324342D01*
X151138095Y-99324342D02*
X151185714Y-99419580D01*
X151185714Y-99419580D02*
X151233333Y-99467200D01*
X151233333Y-99467200D02*
X151328571Y-99514819D01*
X151328571Y-99514819D02*
X151519047Y-99514819D01*
X151519047Y-99514819D02*
X151614285Y-99467200D01*
X151614285Y-99467200D02*
X151661904Y-99419580D01*
X151661904Y-99419580D02*
X151709523Y-99324342D01*
X151709523Y-99324342D02*
X151709523Y-98514819D01*
X152138095Y-99467200D02*
X152280952Y-99514819D01*
X152280952Y-99514819D02*
X152519047Y-99514819D01*
X152519047Y-99514819D02*
X152614285Y-99467200D01*
X152614285Y-99467200D02*
X152661904Y-99419580D01*
X152661904Y-99419580D02*
X152709523Y-99324342D01*
X152709523Y-99324342D02*
X152709523Y-99229104D01*
X152709523Y-99229104D02*
X152661904Y-99133866D01*
X152661904Y-99133866D02*
X152614285Y-99086247D01*
X152614285Y-99086247D02*
X152519047Y-99038628D01*
X152519047Y-99038628D02*
X152328571Y-98991009D01*
X152328571Y-98991009D02*
X152233333Y-98943390D01*
X152233333Y-98943390D02*
X152185714Y-98895771D01*
X152185714Y-98895771D02*
X152138095Y-98800533D01*
X152138095Y-98800533D02*
X152138095Y-98705295D01*
X152138095Y-98705295D02*
X152185714Y-98610057D01*
X152185714Y-98610057D02*
X152233333Y-98562438D01*
X152233333Y-98562438D02*
X152328571Y-98514819D01*
X152328571Y-98514819D02*
X152566666Y-98514819D01*
X152566666Y-98514819D02*
X152709523Y-98562438D01*
X153471428Y-98991009D02*
X153614285Y-99038628D01*
X153614285Y-99038628D02*
X153661904Y-99086247D01*
X153661904Y-99086247D02*
X153709523Y-99181485D01*
X153709523Y-99181485D02*
X153709523Y-99324342D01*
X153709523Y-99324342D02*
X153661904Y-99419580D01*
X153661904Y-99419580D02*
X153614285Y-99467200D01*
X153614285Y-99467200D02*
X153519047Y-99514819D01*
X153519047Y-99514819D02*
X153138095Y-99514819D01*
X153138095Y-99514819D02*
X153138095Y-98514819D01*
X153138095Y-98514819D02*
X153471428Y-98514819D01*
X153471428Y-98514819D02*
X153566666Y-98562438D01*
X153566666Y-98562438D02*
X153614285Y-98610057D01*
X153614285Y-98610057D02*
X153661904Y-98705295D01*
X153661904Y-98705295D02*
X153661904Y-98800533D01*
X153661904Y-98800533D02*
X153614285Y-98895771D01*
X153614285Y-98895771D02*
X153566666Y-98943390D01*
X153566666Y-98943390D02*
X153471428Y-98991009D01*
X153471428Y-98991009D02*
X153138095Y-98991009D01*
D12*
X162181265Y-89121704D02*
X162657455Y-89121704D01*
X162086027Y-89407419D02*
X162419360Y-88407419D01*
X162419360Y-88407419D02*
X162752693Y-89407419D01*
X163609836Y-89407419D02*
X163038408Y-89407419D01*
X163324122Y-89407419D02*
X163324122Y-88407419D01*
X163324122Y-88407419D02*
X163228884Y-88550276D01*
X163228884Y-88550276D02*
X163133646Y-88645514D01*
X163133646Y-88645514D02*
X163038408Y-88693133D01*
X162181265Y-86581704D02*
X162657455Y-86581704D01*
X162086027Y-86867419D02*
X162419360Y-85867419D01*
X162419360Y-85867419D02*
X162752693Y-86867419D01*
X163038408Y-85962657D02*
X163086027Y-85915038D01*
X163086027Y-85915038D02*
X163181265Y-85867419D01*
X163181265Y-85867419D02*
X163419360Y-85867419D01*
X163419360Y-85867419D02*
X163514598Y-85915038D01*
X163514598Y-85915038D02*
X163562217Y-85962657D01*
X163562217Y-85962657D02*
X163609836Y-86057895D01*
X163609836Y-86057895D02*
X163609836Y-86153133D01*
X163609836Y-86153133D02*
X163562217Y-86295990D01*
X163562217Y-86295990D02*
X162990789Y-86867419D01*
X162990789Y-86867419D02*
X163609836Y-86867419D01*
X162181265Y-84041704D02*
X162657455Y-84041704D01*
X162086027Y-84327419D02*
X162419360Y-83327419D01*
X162419360Y-83327419D02*
X162752693Y-84327419D01*
X162990789Y-83327419D02*
X163609836Y-83327419D01*
X163609836Y-83327419D02*
X163276503Y-83708371D01*
X163276503Y-83708371D02*
X163419360Y-83708371D01*
X163419360Y-83708371D02*
X163514598Y-83755990D01*
X163514598Y-83755990D02*
X163562217Y-83803609D01*
X163562217Y-83803609D02*
X163609836Y-83898847D01*
X163609836Y-83898847D02*
X163609836Y-84136942D01*
X163609836Y-84136942D02*
X163562217Y-84232180D01*
X163562217Y-84232180D02*
X163514598Y-84279800D01*
X163514598Y-84279800D02*
X163419360Y-84327419D01*
X163419360Y-84327419D02*
X163133646Y-84327419D01*
X163133646Y-84327419D02*
X163038408Y-84279800D01*
X163038408Y-84279800D02*
X162990789Y-84232180D01*
X162705074Y-70627419D02*
X162228884Y-70627419D01*
X162228884Y-70627419D02*
X162181265Y-71103609D01*
X162181265Y-71103609D02*
X162228884Y-71055990D01*
X162228884Y-71055990D02*
X162324122Y-71008371D01*
X162324122Y-71008371D02*
X162562217Y-71008371D01*
X162562217Y-71008371D02*
X162657455Y-71055990D01*
X162657455Y-71055990D02*
X162705074Y-71103609D01*
X162705074Y-71103609D02*
X162752693Y-71198847D01*
X162752693Y-71198847D02*
X162752693Y-71436942D01*
X162752693Y-71436942D02*
X162705074Y-71532180D01*
X162705074Y-71532180D02*
X162657455Y-71579800D01*
X162657455Y-71579800D02*
X162562217Y-71627419D01*
X162562217Y-71627419D02*
X162324122Y-71627419D01*
X162324122Y-71627419D02*
X162228884Y-71579800D01*
X162228884Y-71579800D02*
X162181265Y-71532180D01*
X163038408Y-70627419D02*
X163371741Y-71627419D01*
X163371741Y-71627419D02*
X163705074Y-70627419D01*
X162800312Y-69087419D02*
X162466979Y-68611228D01*
X162228884Y-69087419D02*
X162228884Y-68087419D01*
X162228884Y-68087419D02*
X162609836Y-68087419D01*
X162609836Y-68087419D02*
X162705074Y-68135038D01*
X162705074Y-68135038D02*
X162752693Y-68182657D01*
X162752693Y-68182657D02*
X162800312Y-68277895D01*
X162800312Y-68277895D02*
X162800312Y-68420752D01*
X162800312Y-68420752D02*
X162752693Y-68515990D01*
X162752693Y-68515990D02*
X162705074Y-68563609D01*
X162705074Y-68563609D02*
X162609836Y-68611228D01*
X162609836Y-68611228D02*
X162228884Y-68611228D01*
X163181265Y-69039800D02*
X163324122Y-69087419D01*
X163324122Y-69087419D02*
X163562217Y-69087419D01*
X163562217Y-69087419D02*
X163657455Y-69039800D01*
X163657455Y-69039800D02*
X163705074Y-68992180D01*
X163705074Y-68992180D02*
X163752693Y-68896942D01*
X163752693Y-68896942D02*
X163752693Y-68801704D01*
X163752693Y-68801704D02*
X163705074Y-68706466D01*
X163705074Y-68706466D02*
X163657455Y-68658847D01*
X163657455Y-68658847D02*
X163562217Y-68611228D01*
X163562217Y-68611228D02*
X163371741Y-68563609D01*
X163371741Y-68563609D02*
X163276503Y-68515990D01*
X163276503Y-68515990D02*
X163228884Y-68468371D01*
X163228884Y-68468371D02*
X163181265Y-68373133D01*
X163181265Y-68373133D02*
X163181265Y-68277895D01*
X163181265Y-68277895D02*
X163228884Y-68182657D01*
X163228884Y-68182657D02*
X163276503Y-68135038D01*
X163276503Y-68135038D02*
X163371741Y-68087419D01*
X163371741Y-68087419D02*
X163609836Y-68087419D01*
X163609836Y-68087419D02*
X163752693Y-68135038D01*
X164038408Y-68087419D02*
X164609836Y-68087419D01*
X164324122Y-69087419D02*
X164324122Y-68087419D01*
X140638884Y-86867419D02*
X140638884Y-85867419D01*
X140638884Y-85867419D02*
X140876979Y-85867419D01*
X140876979Y-85867419D02*
X141019836Y-85915038D01*
X141019836Y-85915038D02*
X141115074Y-86010276D01*
X141115074Y-86010276D02*
X141162693Y-86105514D01*
X141162693Y-86105514D02*
X141210312Y-86295990D01*
X141210312Y-86295990D02*
X141210312Y-86438847D01*
X141210312Y-86438847D02*
X141162693Y-86629323D01*
X141162693Y-86629323D02*
X141115074Y-86724561D01*
X141115074Y-86724561D02*
X141019836Y-86819800D01*
X141019836Y-86819800D02*
X140876979Y-86867419D01*
X140876979Y-86867419D02*
X140638884Y-86867419D01*
X141543646Y-85867419D02*
X142210312Y-85867419D01*
X142210312Y-85867419D02*
X141781741Y-86867419D01*
X140638884Y-81787419D02*
X140638884Y-80787419D01*
X140638884Y-80787419D02*
X140876979Y-80787419D01*
X140876979Y-80787419D02*
X141019836Y-80835038D01*
X141019836Y-80835038D02*
X141115074Y-80930276D01*
X141115074Y-80930276D02*
X141162693Y-81025514D01*
X141162693Y-81025514D02*
X141210312Y-81215990D01*
X141210312Y-81215990D02*
X141210312Y-81358847D01*
X141210312Y-81358847D02*
X141162693Y-81549323D01*
X141162693Y-81549323D02*
X141115074Y-81644561D01*
X141115074Y-81644561D02*
X141019836Y-81739800D01*
X141019836Y-81739800D02*
X140876979Y-81787419D01*
X140876979Y-81787419D02*
X140638884Y-81787419D01*
X142115074Y-80787419D02*
X141638884Y-80787419D01*
X141638884Y-80787419D02*
X141591265Y-81263609D01*
X141591265Y-81263609D02*
X141638884Y-81215990D01*
X141638884Y-81215990D02*
X141734122Y-81168371D01*
X141734122Y-81168371D02*
X141972217Y-81168371D01*
X141972217Y-81168371D02*
X142067455Y-81215990D01*
X142067455Y-81215990D02*
X142115074Y-81263609D01*
X142115074Y-81263609D02*
X142162693Y-81358847D01*
X142162693Y-81358847D02*
X142162693Y-81596942D01*
X142162693Y-81596942D02*
X142115074Y-81692180D01*
X142115074Y-81692180D02*
X142067455Y-81739800D01*
X142067455Y-81739800D02*
X141972217Y-81787419D01*
X141972217Y-81787419D02*
X141734122Y-81787419D01*
X141734122Y-81787419D02*
X141638884Y-81739800D01*
X141638884Y-81739800D02*
X141591265Y-81692180D01*
X162181265Y-73881704D02*
X162657455Y-73881704D01*
X162086027Y-74167419D02*
X162419360Y-73167419D01*
X162419360Y-73167419D02*
X162752693Y-74167419D01*
X162990789Y-73167419D02*
X163657455Y-73167419D01*
X163657455Y-73167419D02*
X163228884Y-74167419D01*
X140638884Y-84327419D02*
X140638884Y-83327419D01*
X140638884Y-83327419D02*
X140876979Y-83327419D01*
X140876979Y-83327419D02*
X141019836Y-83375038D01*
X141019836Y-83375038D02*
X141115074Y-83470276D01*
X141115074Y-83470276D02*
X141162693Y-83565514D01*
X141162693Y-83565514D02*
X141210312Y-83755990D01*
X141210312Y-83755990D02*
X141210312Y-83898847D01*
X141210312Y-83898847D02*
X141162693Y-84089323D01*
X141162693Y-84089323D02*
X141115074Y-84184561D01*
X141115074Y-84184561D02*
X141019836Y-84279800D01*
X141019836Y-84279800D02*
X140876979Y-84327419D01*
X140876979Y-84327419D02*
X140638884Y-84327419D01*
X142067455Y-83327419D02*
X141876979Y-83327419D01*
X141876979Y-83327419D02*
X141781741Y-83375038D01*
X141781741Y-83375038D02*
X141734122Y-83422657D01*
X141734122Y-83422657D02*
X141638884Y-83565514D01*
X141638884Y-83565514D02*
X141591265Y-83755990D01*
X141591265Y-83755990D02*
X141591265Y-84136942D01*
X141591265Y-84136942D02*
X141638884Y-84232180D01*
X141638884Y-84232180D02*
X141686503Y-84279800D01*
X141686503Y-84279800D02*
X141781741Y-84327419D01*
X141781741Y-84327419D02*
X141972217Y-84327419D01*
X141972217Y-84327419D02*
X142067455Y-84279800D01*
X142067455Y-84279800D02*
X142115074Y-84232180D01*
X142115074Y-84232180D02*
X142162693Y-84136942D01*
X142162693Y-84136942D02*
X142162693Y-83898847D01*
X142162693Y-83898847D02*
X142115074Y-83803609D01*
X142115074Y-83803609D02*
X142067455Y-83755990D01*
X142067455Y-83755990D02*
X141972217Y-83708371D01*
X141972217Y-83708371D02*
X141781741Y-83708371D01*
X141781741Y-83708371D02*
X141686503Y-83755990D01*
X141686503Y-83755990D02*
X141638884Y-83803609D01*
X141638884Y-83803609D02*
X141591265Y-83898847D01*
X162800312Y-94487419D02*
X162466979Y-94011228D01*
X162228884Y-94487419D02*
X162228884Y-93487419D01*
X162228884Y-93487419D02*
X162609836Y-93487419D01*
X162609836Y-93487419D02*
X162705074Y-93535038D01*
X162705074Y-93535038D02*
X162752693Y-93582657D01*
X162752693Y-93582657D02*
X162800312Y-93677895D01*
X162800312Y-93677895D02*
X162800312Y-93820752D01*
X162800312Y-93820752D02*
X162752693Y-93915990D01*
X162752693Y-93915990D02*
X162705074Y-93963609D01*
X162705074Y-93963609D02*
X162609836Y-94011228D01*
X162609836Y-94011228D02*
X162228884Y-94011228D01*
X163228884Y-93963609D02*
X163562217Y-93963609D01*
X163705074Y-94487419D02*
X163228884Y-94487419D01*
X163228884Y-94487419D02*
X163228884Y-93487419D01*
X163228884Y-93487419D02*
X163705074Y-93487419D01*
X164466979Y-93963609D02*
X164133646Y-93963609D01*
X164133646Y-94487419D02*
X164133646Y-93487419D01*
X164133646Y-93487419D02*
X164609836Y-93487419D01*
X140638884Y-97027419D02*
X140638884Y-96027419D01*
X140638884Y-96027419D02*
X140876979Y-96027419D01*
X140876979Y-96027419D02*
X141019836Y-96075038D01*
X141019836Y-96075038D02*
X141115074Y-96170276D01*
X141115074Y-96170276D02*
X141162693Y-96265514D01*
X141162693Y-96265514D02*
X141210312Y-96455990D01*
X141210312Y-96455990D02*
X141210312Y-96598847D01*
X141210312Y-96598847D02*
X141162693Y-96789323D01*
X141162693Y-96789323D02*
X141115074Y-96884561D01*
X141115074Y-96884561D02*
X141019836Y-96979800D01*
X141019836Y-96979800D02*
X140876979Y-97027419D01*
X140876979Y-97027419D02*
X140638884Y-97027419D01*
X142162693Y-97027419D02*
X141591265Y-97027419D01*
X141876979Y-97027419D02*
X141876979Y-96027419D01*
X141876979Y-96027419D02*
X141781741Y-96170276D01*
X141781741Y-96170276D02*
X141686503Y-96265514D01*
X141686503Y-96265514D02*
X141591265Y-96313133D01*
X143115074Y-97027419D02*
X142543646Y-97027419D01*
X142829360Y-97027419D02*
X142829360Y-96027419D01*
X142829360Y-96027419D02*
X142734122Y-96170276D01*
X142734122Y-96170276D02*
X142638884Y-96265514D01*
X142638884Y-96265514D02*
X142543646Y-96313133D01*
X162086027Y-63007419D02*
X162419360Y-64007419D01*
X162419360Y-64007419D02*
X162752693Y-63007419D01*
X163086027Y-64007419D02*
X163086027Y-63340752D01*
X163086027Y-63007419D02*
X163038408Y-63055038D01*
X163038408Y-63055038D02*
X163086027Y-63102657D01*
X163086027Y-63102657D02*
X163133646Y-63055038D01*
X163133646Y-63055038D02*
X163086027Y-63007419D01*
X163086027Y-63007419D02*
X163086027Y-63102657D01*
X163562217Y-63340752D02*
X163562217Y-64007419D01*
X163562217Y-63435990D02*
X163609836Y-63388371D01*
X163609836Y-63388371D02*
X163705074Y-63340752D01*
X163705074Y-63340752D02*
X163847931Y-63340752D01*
X163847931Y-63340752D02*
X163943169Y-63388371D01*
X163943169Y-63388371D02*
X163990788Y-63483609D01*
X163990788Y-63483609D02*
X163990788Y-64007419D01*
X140638884Y-89407419D02*
X140638884Y-88407419D01*
X140638884Y-88407419D02*
X140876979Y-88407419D01*
X140876979Y-88407419D02*
X141019836Y-88455038D01*
X141019836Y-88455038D02*
X141115074Y-88550276D01*
X141115074Y-88550276D02*
X141162693Y-88645514D01*
X141162693Y-88645514D02*
X141210312Y-88835990D01*
X141210312Y-88835990D02*
X141210312Y-88978847D01*
X141210312Y-88978847D02*
X141162693Y-89169323D01*
X141162693Y-89169323D02*
X141115074Y-89264561D01*
X141115074Y-89264561D02*
X141019836Y-89359800D01*
X141019836Y-89359800D02*
X140876979Y-89407419D01*
X140876979Y-89407419D02*
X140638884Y-89407419D01*
X141781741Y-88835990D02*
X141686503Y-88788371D01*
X141686503Y-88788371D02*
X141638884Y-88740752D01*
X141638884Y-88740752D02*
X141591265Y-88645514D01*
X141591265Y-88645514D02*
X141591265Y-88597895D01*
X141591265Y-88597895D02*
X141638884Y-88502657D01*
X141638884Y-88502657D02*
X141686503Y-88455038D01*
X141686503Y-88455038D02*
X141781741Y-88407419D01*
X141781741Y-88407419D02*
X141972217Y-88407419D01*
X141972217Y-88407419D02*
X142067455Y-88455038D01*
X142067455Y-88455038D02*
X142115074Y-88502657D01*
X142115074Y-88502657D02*
X142162693Y-88597895D01*
X142162693Y-88597895D02*
X142162693Y-88645514D01*
X142162693Y-88645514D02*
X142115074Y-88740752D01*
X142115074Y-88740752D02*
X142067455Y-88788371D01*
X142067455Y-88788371D02*
X141972217Y-88835990D01*
X141972217Y-88835990D02*
X141781741Y-88835990D01*
X141781741Y-88835990D02*
X141686503Y-88883609D01*
X141686503Y-88883609D02*
X141638884Y-88931228D01*
X141638884Y-88931228D02*
X141591265Y-89026466D01*
X141591265Y-89026466D02*
X141591265Y-89216942D01*
X141591265Y-89216942D02*
X141638884Y-89312180D01*
X141638884Y-89312180D02*
X141686503Y-89359800D01*
X141686503Y-89359800D02*
X141781741Y-89407419D01*
X141781741Y-89407419D02*
X141972217Y-89407419D01*
X141972217Y-89407419D02*
X142067455Y-89359800D01*
X142067455Y-89359800D02*
X142115074Y-89312180D01*
X142115074Y-89312180D02*
X142162693Y-89216942D01*
X142162693Y-89216942D02*
X142162693Y-89026466D01*
X142162693Y-89026466D02*
X142115074Y-88931228D01*
X142115074Y-88931228D02*
X142067455Y-88883609D01*
X142067455Y-88883609D02*
X141972217Y-88835990D01*
X140638884Y-99567419D02*
X140638884Y-98567419D01*
X140638884Y-98567419D02*
X140876979Y-98567419D01*
X140876979Y-98567419D02*
X141019836Y-98615038D01*
X141019836Y-98615038D02*
X141115074Y-98710276D01*
X141115074Y-98710276D02*
X141162693Y-98805514D01*
X141162693Y-98805514D02*
X141210312Y-98995990D01*
X141210312Y-98995990D02*
X141210312Y-99138847D01*
X141210312Y-99138847D02*
X141162693Y-99329323D01*
X141162693Y-99329323D02*
X141115074Y-99424561D01*
X141115074Y-99424561D02*
X141019836Y-99519800D01*
X141019836Y-99519800D02*
X140876979Y-99567419D01*
X140876979Y-99567419D02*
X140638884Y-99567419D01*
X142162693Y-99567419D02*
X141591265Y-99567419D01*
X141876979Y-99567419D02*
X141876979Y-98567419D01*
X141876979Y-98567419D02*
X141781741Y-98710276D01*
X141781741Y-98710276D02*
X141686503Y-98805514D01*
X141686503Y-98805514D02*
X141591265Y-98853133D01*
X142543646Y-98662657D02*
X142591265Y-98615038D01*
X142591265Y-98615038D02*
X142686503Y-98567419D01*
X142686503Y-98567419D02*
X142924598Y-98567419D01*
X142924598Y-98567419D02*
X143019836Y-98615038D01*
X143019836Y-98615038D02*
X143067455Y-98662657D01*
X143067455Y-98662657D02*
X143115074Y-98757895D01*
X143115074Y-98757895D02*
X143115074Y-98853133D01*
X143115074Y-98853133D02*
X143067455Y-98995990D01*
X143067455Y-98995990D02*
X142496027Y-99567419D01*
X142496027Y-99567419D02*
X143115074Y-99567419D01*
X141210312Y-66547419D02*
X140876979Y-66071228D01*
X140638884Y-66547419D02*
X140638884Y-65547419D01*
X140638884Y-65547419D02*
X141019836Y-65547419D01*
X141019836Y-65547419D02*
X141115074Y-65595038D01*
X141115074Y-65595038D02*
X141162693Y-65642657D01*
X141162693Y-65642657D02*
X141210312Y-65737895D01*
X141210312Y-65737895D02*
X141210312Y-65880752D01*
X141210312Y-65880752D02*
X141162693Y-65975990D01*
X141162693Y-65975990D02*
X141115074Y-66023609D01*
X141115074Y-66023609D02*
X141019836Y-66071228D01*
X141019836Y-66071228D02*
X140638884Y-66071228D01*
X141543646Y-65547419D02*
X142210312Y-66547419D01*
X142210312Y-65547419D02*
X141543646Y-66547419D01*
X142591265Y-66547419D02*
X142591265Y-65547419D01*
X142591265Y-65547419D02*
X142829360Y-65547419D01*
X142829360Y-65547419D02*
X142972217Y-65595038D01*
X142972217Y-65595038D02*
X143067455Y-65690276D01*
X143067455Y-65690276D02*
X143115074Y-65785514D01*
X143115074Y-65785514D02*
X143162693Y-65975990D01*
X143162693Y-65975990D02*
X143162693Y-66118847D01*
X143162693Y-66118847D02*
X143115074Y-66309323D01*
X143115074Y-66309323D02*
X143067455Y-66404561D01*
X143067455Y-66404561D02*
X142972217Y-66499800D01*
X142972217Y-66499800D02*
X142829360Y-66547419D01*
X142829360Y-66547419D02*
X142591265Y-66547419D01*
X140638884Y-79247419D02*
X140638884Y-78247419D01*
X140638884Y-78247419D02*
X140876979Y-78247419D01*
X140876979Y-78247419D02*
X141019836Y-78295038D01*
X141019836Y-78295038D02*
X141115074Y-78390276D01*
X141115074Y-78390276D02*
X141162693Y-78485514D01*
X141162693Y-78485514D02*
X141210312Y-78675990D01*
X141210312Y-78675990D02*
X141210312Y-78818847D01*
X141210312Y-78818847D02*
X141162693Y-79009323D01*
X141162693Y-79009323D02*
X141115074Y-79104561D01*
X141115074Y-79104561D02*
X141019836Y-79199800D01*
X141019836Y-79199800D02*
X140876979Y-79247419D01*
X140876979Y-79247419D02*
X140638884Y-79247419D01*
X142067455Y-78580752D02*
X142067455Y-79247419D01*
X141829360Y-78199800D02*
X141591265Y-78914085D01*
X141591265Y-78914085D02*
X142210312Y-78914085D01*
X140638884Y-74167419D02*
X140638884Y-73167419D01*
X140638884Y-73167419D02*
X140876979Y-73167419D01*
X140876979Y-73167419D02*
X141019836Y-73215038D01*
X141019836Y-73215038D02*
X141115074Y-73310276D01*
X141115074Y-73310276D02*
X141162693Y-73405514D01*
X141162693Y-73405514D02*
X141210312Y-73595990D01*
X141210312Y-73595990D02*
X141210312Y-73738847D01*
X141210312Y-73738847D02*
X141162693Y-73929323D01*
X141162693Y-73929323D02*
X141115074Y-74024561D01*
X141115074Y-74024561D02*
X141019836Y-74119800D01*
X141019836Y-74119800D02*
X140876979Y-74167419D01*
X140876979Y-74167419D02*
X140638884Y-74167419D01*
X141591265Y-73262657D02*
X141638884Y-73215038D01*
X141638884Y-73215038D02*
X141734122Y-73167419D01*
X141734122Y-73167419D02*
X141972217Y-73167419D01*
X141972217Y-73167419D02*
X142067455Y-73215038D01*
X142067455Y-73215038D02*
X142115074Y-73262657D01*
X142115074Y-73262657D02*
X142162693Y-73357895D01*
X142162693Y-73357895D02*
X142162693Y-73453133D01*
X142162693Y-73453133D02*
X142115074Y-73595990D01*
X142115074Y-73595990D02*
X141543646Y-74167419D01*
X141543646Y-74167419D02*
X142162693Y-74167419D01*
X162181265Y-78961704D02*
X162657455Y-78961704D01*
X162086027Y-79247419D02*
X162419360Y-78247419D01*
X162419360Y-78247419D02*
X162752693Y-79247419D01*
X163562217Y-78247419D02*
X163086027Y-78247419D01*
X163086027Y-78247419D02*
X163038408Y-78723609D01*
X163038408Y-78723609D02*
X163086027Y-78675990D01*
X163086027Y-78675990D02*
X163181265Y-78628371D01*
X163181265Y-78628371D02*
X163419360Y-78628371D01*
X163419360Y-78628371D02*
X163514598Y-78675990D01*
X163514598Y-78675990D02*
X163562217Y-78723609D01*
X163562217Y-78723609D02*
X163609836Y-78818847D01*
X163609836Y-78818847D02*
X163609836Y-79056942D01*
X163609836Y-79056942D02*
X163562217Y-79152180D01*
X163562217Y-79152180D02*
X163514598Y-79199800D01*
X163514598Y-79199800D02*
X163419360Y-79247419D01*
X163419360Y-79247419D02*
X163181265Y-79247419D01*
X163181265Y-79247419D02*
X163086027Y-79199800D01*
X163086027Y-79199800D02*
X163038408Y-79152180D01*
X162181265Y-81501704D02*
X162657455Y-81501704D01*
X162086027Y-81787419D02*
X162419360Y-80787419D01*
X162419360Y-80787419D02*
X162752693Y-81787419D01*
X163514598Y-81120752D02*
X163514598Y-81787419D01*
X163276503Y-80739800D02*
X163038408Y-81454085D01*
X163038408Y-81454085D02*
X163657455Y-81454085D01*
X140638884Y-76707419D02*
X140638884Y-75707419D01*
X140638884Y-75707419D02*
X140876979Y-75707419D01*
X140876979Y-75707419D02*
X141019836Y-75755038D01*
X141019836Y-75755038D02*
X141115074Y-75850276D01*
X141115074Y-75850276D02*
X141162693Y-75945514D01*
X141162693Y-75945514D02*
X141210312Y-76135990D01*
X141210312Y-76135990D02*
X141210312Y-76278847D01*
X141210312Y-76278847D02*
X141162693Y-76469323D01*
X141162693Y-76469323D02*
X141115074Y-76564561D01*
X141115074Y-76564561D02*
X141019836Y-76659800D01*
X141019836Y-76659800D02*
X140876979Y-76707419D01*
X140876979Y-76707419D02*
X140638884Y-76707419D01*
X141543646Y-75707419D02*
X142162693Y-75707419D01*
X142162693Y-75707419D02*
X141829360Y-76088371D01*
X141829360Y-76088371D02*
X141972217Y-76088371D01*
X141972217Y-76088371D02*
X142067455Y-76135990D01*
X142067455Y-76135990D02*
X142115074Y-76183609D01*
X142115074Y-76183609D02*
X142162693Y-76278847D01*
X142162693Y-76278847D02*
X142162693Y-76516942D01*
X142162693Y-76516942D02*
X142115074Y-76612180D01*
X142115074Y-76612180D02*
X142067455Y-76659800D01*
X142067455Y-76659800D02*
X141972217Y-76707419D01*
X141972217Y-76707419D02*
X141686503Y-76707419D01*
X141686503Y-76707419D02*
X141591265Y-76659800D01*
X141591265Y-76659800D02*
X141543646Y-76612180D01*
X140496027Y-63007419D02*
X141067455Y-63007419D01*
X140781741Y-64007419D02*
X140781741Y-63007419D01*
X141305551Y-63007419D02*
X141972217Y-64007419D01*
X141972217Y-63007419D02*
X141305551Y-64007419D01*
X142353170Y-64007419D02*
X142353170Y-63007419D01*
X142353170Y-63007419D02*
X142591265Y-63007419D01*
X142591265Y-63007419D02*
X142734122Y-63055038D01*
X142734122Y-63055038D02*
X142829360Y-63150276D01*
X142829360Y-63150276D02*
X142876979Y-63245514D01*
X142876979Y-63245514D02*
X142924598Y-63435990D01*
X142924598Y-63435990D02*
X142924598Y-63578847D01*
X142924598Y-63578847D02*
X142876979Y-63769323D01*
X142876979Y-63769323D02*
X142829360Y-63864561D01*
X142829360Y-63864561D02*
X142734122Y-63959800D01*
X142734122Y-63959800D02*
X142591265Y-64007419D01*
X142591265Y-64007419D02*
X142353170Y-64007419D01*
X140638884Y-94487419D02*
X140638884Y-93487419D01*
X140638884Y-93487419D02*
X140876979Y-93487419D01*
X140876979Y-93487419D02*
X141019836Y-93535038D01*
X141019836Y-93535038D02*
X141115074Y-93630276D01*
X141115074Y-93630276D02*
X141162693Y-93725514D01*
X141162693Y-93725514D02*
X141210312Y-93915990D01*
X141210312Y-93915990D02*
X141210312Y-94058847D01*
X141210312Y-94058847D02*
X141162693Y-94249323D01*
X141162693Y-94249323D02*
X141115074Y-94344561D01*
X141115074Y-94344561D02*
X141019836Y-94439800D01*
X141019836Y-94439800D02*
X140876979Y-94487419D01*
X140876979Y-94487419D02*
X140638884Y-94487419D01*
X142162693Y-94487419D02*
X141591265Y-94487419D01*
X141876979Y-94487419D02*
X141876979Y-93487419D01*
X141876979Y-93487419D02*
X141781741Y-93630276D01*
X141781741Y-93630276D02*
X141686503Y-93725514D01*
X141686503Y-93725514D02*
X141591265Y-93773133D01*
X142781741Y-93487419D02*
X142876979Y-93487419D01*
X142876979Y-93487419D02*
X142972217Y-93535038D01*
X142972217Y-93535038D02*
X143019836Y-93582657D01*
X143019836Y-93582657D02*
X143067455Y-93677895D01*
X143067455Y-93677895D02*
X143115074Y-93868371D01*
X143115074Y-93868371D02*
X143115074Y-94106466D01*
X143115074Y-94106466D02*
X143067455Y-94296942D01*
X143067455Y-94296942D02*
X143019836Y-94392180D01*
X143019836Y-94392180D02*
X142972217Y-94439800D01*
X142972217Y-94439800D02*
X142876979Y-94487419D01*
X142876979Y-94487419D02*
X142781741Y-94487419D01*
X142781741Y-94487419D02*
X142686503Y-94439800D01*
X142686503Y-94439800D02*
X142638884Y-94392180D01*
X142638884Y-94392180D02*
X142591265Y-94296942D01*
X142591265Y-94296942D02*
X142543646Y-94106466D01*
X142543646Y-94106466D02*
X142543646Y-93868371D01*
X142543646Y-93868371D02*
X142591265Y-93677895D01*
X142591265Y-93677895D02*
X142638884Y-93582657D01*
X142638884Y-93582657D02*
X142686503Y-93535038D01*
X142686503Y-93535038D02*
X142781741Y-93487419D01*
X141210312Y-69087419D02*
X140876979Y-68611228D01*
X140638884Y-69087419D02*
X140638884Y-68087419D01*
X140638884Y-68087419D02*
X141019836Y-68087419D01*
X141019836Y-68087419D02*
X141115074Y-68135038D01*
X141115074Y-68135038D02*
X141162693Y-68182657D01*
X141162693Y-68182657D02*
X141210312Y-68277895D01*
X141210312Y-68277895D02*
X141210312Y-68420752D01*
X141210312Y-68420752D02*
X141162693Y-68515990D01*
X141162693Y-68515990D02*
X141115074Y-68563609D01*
X141115074Y-68563609D02*
X141019836Y-68611228D01*
X141019836Y-68611228D02*
X140638884Y-68611228D01*
X141591265Y-69039800D02*
X141734122Y-69087419D01*
X141734122Y-69087419D02*
X141972217Y-69087419D01*
X141972217Y-69087419D02*
X142067455Y-69039800D01*
X142067455Y-69039800D02*
X142115074Y-68992180D01*
X142115074Y-68992180D02*
X142162693Y-68896942D01*
X142162693Y-68896942D02*
X142162693Y-68801704D01*
X142162693Y-68801704D02*
X142115074Y-68706466D01*
X142115074Y-68706466D02*
X142067455Y-68658847D01*
X142067455Y-68658847D02*
X141972217Y-68611228D01*
X141972217Y-68611228D02*
X141781741Y-68563609D01*
X141781741Y-68563609D02*
X141686503Y-68515990D01*
X141686503Y-68515990D02*
X141638884Y-68468371D01*
X141638884Y-68468371D02*
X141591265Y-68373133D01*
X141591265Y-68373133D02*
X141591265Y-68277895D01*
X141591265Y-68277895D02*
X141638884Y-68182657D01*
X141638884Y-68182657D02*
X141686503Y-68135038D01*
X141686503Y-68135038D02*
X141781741Y-68087419D01*
X141781741Y-68087419D02*
X142019836Y-68087419D01*
X142019836Y-68087419D02*
X142162693Y-68135038D01*
X142448408Y-68087419D02*
X143019836Y-68087419D01*
X142734122Y-69087419D02*
X142734122Y-68087419D01*
D11*
X131056191Y-104102819D02*
X131389524Y-105102819D01*
X131389524Y-105102819D02*
X131722857Y-104102819D01*
X132056191Y-105102819D02*
X132056191Y-104436152D01*
X132056191Y-104102819D02*
X132008572Y-104150438D01*
X132008572Y-104150438D02*
X132056191Y-104198057D01*
X132056191Y-104198057D02*
X132103810Y-104150438D01*
X132103810Y-104150438D02*
X132056191Y-104102819D01*
X132056191Y-104102819D02*
X132056191Y-104198057D01*
X132532381Y-104436152D02*
X132532381Y-105102819D01*
X132532381Y-104531390D02*
X132580000Y-104483771D01*
X132580000Y-104483771D02*
X132675238Y-104436152D01*
X132675238Y-104436152D02*
X132818095Y-104436152D01*
X132818095Y-104436152D02*
X132913333Y-104483771D01*
X132913333Y-104483771D02*
X132960952Y-104579009D01*
X132960952Y-104579009D02*
X132960952Y-105102819D01*
D12*
X130548571Y-63909800D02*
X130691428Y-63957419D01*
X130691428Y-63957419D02*
X130929523Y-63957419D01*
X130929523Y-63957419D02*
X131024761Y-63909800D01*
X131024761Y-63909800D02*
X131072380Y-63862180D01*
X131072380Y-63862180D02*
X131119999Y-63766942D01*
X131119999Y-63766942D02*
X131119999Y-63671704D01*
X131119999Y-63671704D02*
X131072380Y-63576466D01*
X131072380Y-63576466D02*
X131024761Y-63528847D01*
X131024761Y-63528847D02*
X130929523Y-63481228D01*
X130929523Y-63481228D02*
X130739047Y-63433609D01*
X130739047Y-63433609D02*
X130643809Y-63385990D01*
X130643809Y-63385990D02*
X130596190Y-63338371D01*
X130596190Y-63338371D02*
X130548571Y-63243133D01*
X130548571Y-63243133D02*
X130548571Y-63147895D01*
X130548571Y-63147895D02*
X130596190Y-63052657D01*
X130596190Y-63052657D02*
X130643809Y-63005038D01*
X130643809Y-63005038D02*
X130739047Y-62957419D01*
X130739047Y-62957419D02*
X130977142Y-62957419D01*
X130977142Y-62957419D02*
X131119999Y-63005038D01*
X131453333Y-62957419D02*
X131691428Y-63957419D01*
X131691428Y-63957419D02*
X131881904Y-63243133D01*
X131881904Y-63243133D02*
X132072380Y-63957419D01*
X132072380Y-63957419D02*
X132310476Y-62957419D01*
X132453333Y-64052657D02*
X133215237Y-64052657D01*
X133453333Y-63433609D02*
X133786666Y-63433609D01*
X133929523Y-63957419D02*
X133453333Y-63957419D01*
X133453333Y-63957419D02*
X133453333Y-62957419D01*
X133453333Y-62957419D02*
X133929523Y-62957419D01*
X134929523Y-63862180D02*
X134881904Y-63909800D01*
X134881904Y-63909800D02*
X134739047Y-63957419D01*
X134739047Y-63957419D02*
X134643809Y-63957419D01*
X134643809Y-63957419D02*
X134500952Y-63909800D01*
X134500952Y-63909800D02*
X134405714Y-63814561D01*
X134405714Y-63814561D02*
X134358095Y-63719323D01*
X134358095Y-63719323D02*
X134310476Y-63528847D01*
X134310476Y-63528847D02*
X134310476Y-63385990D01*
X134310476Y-63385990D02*
X134358095Y-63195514D01*
X134358095Y-63195514D02*
X134405714Y-63100276D01*
X134405714Y-63100276D02*
X134500952Y-63005038D01*
X134500952Y-63005038D02*
X134643809Y-62957419D01*
X134643809Y-62957419D02*
X134739047Y-62957419D01*
X134739047Y-62957419D02*
X134881904Y-63005038D01*
X134881904Y-63005038D02*
X134929523Y-63052657D01*
X135358095Y-63433609D02*
X135691428Y-63433609D01*
X135834285Y-63957419D02*
X135358095Y-63957419D01*
X135358095Y-63957419D02*
X135358095Y-62957419D01*
X135358095Y-62957419D02*
X135834285Y-62957419D01*
X136691428Y-63290752D02*
X136691428Y-63957419D01*
X136453333Y-62909800D02*
X136215238Y-63624085D01*
X136215238Y-63624085D02*
X136834285Y-63624085D01*
X137739047Y-63957419D02*
X137167619Y-63957419D01*
X137453333Y-63957419D02*
X137453333Y-62957419D01*
X137453333Y-62957419D02*
X137358095Y-63100276D01*
X137358095Y-63100276D02*
X137262857Y-63195514D01*
X137262857Y-63195514D02*
X137167619Y-63243133D01*
X138691428Y-63957419D02*
X138120000Y-63957419D01*
X138405714Y-63957419D02*
X138405714Y-62957419D01*
X138405714Y-62957419D02*
X138310476Y-63100276D01*
X138310476Y-63100276D02*
X138215238Y-63195514D01*
X138215238Y-63195514D02*
X138120000Y-63243133D01*
X132691524Y-51019419D02*
X133262952Y-51019419D01*
X132977238Y-52019419D02*
X132977238Y-51019419D01*
X133977238Y-51971800D02*
X133882000Y-52019419D01*
X133882000Y-52019419D02*
X133691524Y-52019419D01*
X133691524Y-52019419D02*
X133596286Y-51971800D01*
X133596286Y-51971800D02*
X133548667Y-51876561D01*
X133548667Y-51876561D02*
X133548667Y-51495609D01*
X133548667Y-51495609D02*
X133596286Y-51400371D01*
X133596286Y-51400371D02*
X133691524Y-51352752D01*
X133691524Y-51352752D02*
X133882000Y-51352752D01*
X133882000Y-51352752D02*
X133977238Y-51400371D01*
X133977238Y-51400371D02*
X134024857Y-51495609D01*
X134024857Y-51495609D02*
X134024857Y-51590847D01*
X134024857Y-51590847D02*
X133548667Y-51686085D01*
X134882000Y-52019419D02*
X134882000Y-51495609D01*
X134882000Y-51495609D02*
X134834381Y-51400371D01*
X134834381Y-51400371D02*
X134739143Y-51352752D01*
X134739143Y-51352752D02*
X134548667Y-51352752D01*
X134548667Y-51352752D02*
X134453429Y-51400371D01*
X134882000Y-51971800D02*
X134786762Y-52019419D01*
X134786762Y-52019419D02*
X134548667Y-52019419D01*
X134548667Y-52019419D02*
X134453429Y-51971800D01*
X134453429Y-51971800D02*
X134405810Y-51876561D01*
X134405810Y-51876561D02*
X134405810Y-51781323D01*
X134405810Y-51781323D02*
X134453429Y-51686085D01*
X134453429Y-51686085D02*
X134548667Y-51638466D01*
X134548667Y-51638466D02*
X134786762Y-51638466D01*
X134786762Y-51638466D02*
X134882000Y-51590847D01*
X135358191Y-52019419D02*
X135358191Y-51352752D01*
X135358191Y-51447990D02*
X135405810Y-51400371D01*
X135405810Y-51400371D02*
X135501048Y-51352752D01*
X135501048Y-51352752D02*
X135643905Y-51352752D01*
X135643905Y-51352752D02*
X135739143Y-51400371D01*
X135739143Y-51400371D02*
X135786762Y-51495609D01*
X135786762Y-51495609D02*
X135786762Y-52019419D01*
X135786762Y-51495609D02*
X135834381Y-51400371D01*
X135834381Y-51400371D02*
X135929619Y-51352752D01*
X135929619Y-51352752D02*
X136072476Y-51352752D01*
X136072476Y-51352752D02*
X136167715Y-51400371D01*
X136167715Y-51400371D02*
X136215334Y-51495609D01*
X136215334Y-51495609D02*
X136215334Y-52019419D01*
X137358191Y-51019419D02*
X138024857Y-51019419D01*
X138024857Y-51019419D02*
X137596286Y-52019419D01*
X140003884Y-53339466D02*
X140765789Y-53339466D01*
X140384836Y-53720419D02*
X140384836Y-52958514D01*
X137463884Y-53339466D02*
X138225789Y-53339466D01*
X132701312Y-53720419D02*
X132367979Y-53244228D01*
X132129884Y-53720419D02*
X132129884Y-52720419D01*
X132129884Y-52720419D02*
X132510836Y-52720419D01*
X132510836Y-52720419D02*
X132606074Y-52768038D01*
X132606074Y-52768038D02*
X132653693Y-52815657D01*
X132653693Y-52815657D02*
X132701312Y-52910895D01*
X132701312Y-52910895D02*
X132701312Y-53053752D01*
X132701312Y-53053752D02*
X132653693Y-53148990D01*
X132653693Y-53148990D02*
X132606074Y-53196609D01*
X132606074Y-53196609D02*
X132510836Y-53244228D01*
X132510836Y-53244228D02*
X132129884Y-53244228D01*
X133034646Y-52720419D02*
X133701312Y-53720419D01*
X133701312Y-52720419D02*
X133034646Y-53720419D01*
X134527027Y-52720419D02*
X135098455Y-52720419D01*
X134812741Y-53720419D02*
X134812741Y-52720419D01*
X135336551Y-52720419D02*
X136003217Y-53720419D01*
X136003217Y-52720419D02*
X135336551Y-53720419D01*
X129034265Y-76294704D02*
X129510455Y-76294704D01*
X128939027Y-76580419D02*
X129272360Y-75580419D01*
X129272360Y-75580419D02*
X129605693Y-76580419D01*
X130129503Y-75580419D02*
X130224741Y-75580419D01*
X130224741Y-75580419D02*
X130319979Y-75628038D01*
X130319979Y-75628038D02*
X130367598Y-75675657D01*
X130367598Y-75675657D02*
X130415217Y-75770895D01*
X130415217Y-75770895D02*
X130462836Y-75961371D01*
X130462836Y-75961371D02*
X130462836Y-76199466D01*
X130462836Y-76199466D02*
X130415217Y-76389942D01*
X130415217Y-76389942D02*
X130367598Y-76485180D01*
X130367598Y-76485180D02*
X130319979Y-76532800D01*
X130319979Y-76532800D02*
X130224741Y-76580419D01*
X130224741Y-76580419D02*
X130129503Y-76580419D01*
X130129503Y-76580419D02*
X130034265Y-76532800D01*
X130034265Y-76532800D02*
X129986646Y-76485180D01*
X129986646Y-76485180D02*
X129939027Y-76389942D01*
X129939027Y-76389942D02*
X129891408Y-76199466D01*
X129891408Y-76199466D02*
X129891408Y-75961371D01*
X129891408Y-75961371D02*
X129939027Y-75770895D01*
X129939027Y-75770895D02*
X129986646Y-75675657D01*
X129986646Y-75675657D02*
X130034265Y-75628038D01*
X130034265Y-75628038D02*
X130129503Y-75580419D01*
X129034265Y-81374704D02*
X129510455Y-81374704D01*
X128939027Y-81660419D02*
X129272360Y-80660419D01*
X129272360Y-80660419D02*
X129605693Y-81660419D01*
X129891408Y-80755657D02*
X129939027Y-80708038D01*
X129939027Y-80708038D02*
X130034265Y-80660419D01*
X130034265Y-80660419D02*
X130272360Y-80660419D01*
X130272360Y-80660419D02*
X130367598Y-80708038D01*
X130367598Y-80708038D02*
X130415217Y-80755657D01*
X130415217Y-80755657D02*
X130462836Y-80850895D01*
X130462836Y-80850895D02*
X130462836Y-80946133D01*
X130462836Y-80946133D02*
X130415217Y-81088990D01*
X130415217Y-81088990D02*
X129843789Y-81660419D01*
X129843789Y-81660419D02*
X130462836Y-81660419D01*
X127811884Y-73659466D02*
X128573789Y-73659466D01*
X128192836Y-74040419D02*
X128192836Y-73278514D01*
X129526169Y-73040419D02*
X129049979Y-73040419D01*
X129049979Y-73040419D02*
X129002360Y-73516609D01*
X129002360Y-73516609D02*
X129049979Y-73468990D01*
X129049979Y-73468990D02*
X129145217Y-73421371D01*
X129145217Y-73421371D02*
X129383312Y-73421371D01*
X129383312Y-73421371D02*
X129478550Y-73468990D01*
X129478550Y-73468990D02*
X129526169Y-73516609D01*
X129526169Y-73516609D02*
X129573788Y-73611847D01*
X129573788Y-73611847D02*
X129573788Y-73849942D01*
X129573788Y-73849942D02*
X129526169Y-73945180D01*
X129526169Y-73945180D02*
X129478550Y-73992800D01*
X129478550Y-73992800D02*
X129383312Y-74040419D01*
X129383312Y-74040419D02*
X129145217Y-74040419D01*
X129145217Y-74040419D02*
X129049979Y-73992800D01*
X129049979Y-73992800D02*
X129002360Y-73945180D01*
X129859503Y-73040419D02*
X130192836Y-74040419D01*
X130192836Y-74040419D02*
X130526169Y-73040419D01*
X128335693Y-83502038D02*
X128240455Y-83454419D01*
X128240455Y-83454419D02*
X128097598Y-83454419D01*
X128097598Y-83454419D02*
X127954741Y-83502038D01*
X127954741Y-83502038D02*
X127859503Y-83597276D01*
X127859503Y-83597276D02*
X127811884Y-83692514D01*
X127811884Y-83692514D02*
X127764265Y-83882990D01*
X127764265Y-83882990D02*
X127764265Y-84025847D01*
X127764265Y-84025847D02*
X127811884Y-84216323D01*
X127811884Y-84216323D02*
X127859503Y-84311561D01*
X127859503Y-84311561D02*
X127954741Y-84406800D01*
X127954741Y-84406800D02*
X128097598Y-84454419D01*
X128097598Y-84454419D02*
X128192836Y-84454419D01*
X128192836Y-84454419D02*
X128335693Y-84406800D01*
X128335693Y-84406800D02*
X128383312Y-84359180D01*
X128383312Y-84359180D02*
X128383312Y-84025847D01*
X128383312Y-84025847D02*
X128192836Y-84025847D01*
X128811884Y-84454419D02*
X128811884Y-83454419D01*
X128811884Y-83454419D02*
X129383312Y-84454419D01*
X129383312Y-84454419D02*
X129383312Y-83454419D01*
X129859503Y-84454419D02*
X129859503Y-83454419D01*
X129859503Y-83454419D02*
X130097598Y-83454419D01*
X130097598Y-83454419D02*
X130240455Y-83502038D01*
X130240455Y-83502038D02*
X130335693Y-83597276D01*
X130335693Y-83597276D02*
X130383312Y-83692514D01*
X130383312Y-83692514D02*
X130430931Y-83882990D01*
X130430931Y-83882990D02*
X130430931Y-84025847D01*
X130430931Y-84025847D02*
X130383312Y-84216323D01*
X130383312Y-84216323D02*
X130335693Y-84311561D01*
X130335693Y-84311561D02*
X130240455Y-84406800D01*
X130240455Y-84406800D02*
X130097598Y-84454419D01*
X130097598Y-84454419D02*
X129859503Y-84454419D01*
X129034265Y-78834704D02*
X129510455Y-78834704D01*
X128939027Y-79120419D02*
X129272360Y-78120419D01*
X129272360Y-78120419D02*
X129605693Y-79120419D01*
X130462836Y-79120419D02*
X129891408Y-79120419D01*
X130177122Y-79120419D02*
X130177122Y-78120419D01*
X130177122Y-78120419D02*
X130081884Y-78263276D01*
X130081884Y-78263276D02*
X129986646Y-78358514D01*
X129986646Y-78358514D02*
X129891408Y-78406133D01*
D11*
X146336190Y-50746819D02*
X146336190Y-49746819D01*
X146336190Y-49746819D02*
X146907618Y-50746819D01*
X146907618Y-50746819D02*
X146907618Y-49746819D01*
X147955237Y-50746819D02*
X147621904Y-50270628D01*
X147383809Y-50746819D02*
X147383809Y-49746819D01*
X147383809Y-49746819D02*
X147764761Y-49746819D01*
X147764761Y-49746819D02*
X147859999Y-49794438D01*
X147859999Y-49794438D02*
X147907618Y-49842057D01*
X147907618Y-49842057D02*
X147955237Y-49937295D01*
X147955237Y-49937295D02*
X147955237Y-50080152D01*
X147955237Y-50080152D02*
X147907618Y-50175390D01*
X147907618Y-50175390D02*
X147859999Y-50223009D01*
X147859999Y-50223009D02*
X147764761Y-50270628D01*
X147764761Y-50270628D02*
X147383809Y-50270628D01*
X148717142Y-50223009D02*
X148383809Y-50223009D01*
X148383809Y-50746819D02*
X148383809Y-49746819D01*
X148383809Y-49746819D02*
X148859999Y-49746819D01*
X149193333Y-49842057D02*
X149240952Y-49794438D01*
X149240952Y-49794438D02*
X149336190Y-49746819D01*
X149336190Y-49746819D02*
X149574285Y-49746819D01*
X149574285Y-49746819D02*
X149669523Y-49794438D01*
X149669523Y-49794438D02*
X149717142Y-49842057D01*
X149717142Y-49842057D02*
X149764761Y-49937295D01*
X149764761Y-49937295D02*
X149764761Y-50032533D01*
X149764761Y-50032533D02*
X149717142Y-50175390D01*
X149717142Y-50175390D02*
X149145714Y-50746819D01*
X149145714Y-50746819D02*
X149764761Y-50746819D01*
X150621904Y-50080152D02*
X150621904Y-50746819D01*
X150383809Y-49699200D02*
X150145714Y-50413485D01*
X150145714Y-50413485D02*
X150764761Y-50413485D01*
X151621904Y-50746819D02*
X151145714Y-50746819D01*
X151145714Y-50746819D02*
X151145714Y-49746819D01*
X152145714Y-49746819D02*
X152240952Y-49746819D01*
X152240952Y-49746819D02*
X152336190Y-49794438D01*
X152336190Y-49794438D02*
X152383809Y-49842057D01*
X152383809Y-49842057D02*
X152431428Y-49937295D01*
X152431428Y-49937295D02*
X152479047Y-50127771D01*
X152479047Y-50127771D02*
X152479047Y-50365866D01*
X152479047Y-50365866D02*
X152431428Y-50556342D01*
X152431428Y-50556342D02*
X152383809Y-50651580D01*
X152383809Y-50651580D02*
X152336190Y-50699200D01*
X152336190Y-50699200D02*
X152240952Y-50746819D01*
X152240952Y-50746819D02*
X152145714Y-50746819D01*
X152145714Y-50746819D02*
X152050476Y-50699200D01*
X152050476Y-50699200D02*
X152002857Y-50651580D01*
X152002857Y-50651580D02*
X151955238Y-50556342D01*
X151955238Y-50556342D02*
X151907619Y-50365866D01*
X151907619Y-50365866D02*
X151907619Y-50127771D01*
X151907619Y-50127771D02*
X151955238Y-49937295D01*
X151955238Y-49937295D02*
X152002857Y-49842057D01*
X152002857Y-49842057D02*
X152050476Y-49794438D01*
X152050476Y-49794438D02*
X152145714Y-49746819D01*
X153431428Y-50746819D02*
X152860000Y-50746819D01*
X153145714Y-50746819D02*
X153145714Y-49746819D01*
X153145714Y-49746819D02*
X153050476Y-49889676D01*
X153050476Y-49889676D02*
X152955238Y-49984914D01*
X152955238Y-49984914D02*
X152860000Y-50032533D01*
X136398095Y-104150438D02*
X136302857Y-104102819D01*
X136302857Y-104102819D02*
X136160000Y-104102819D01*
X136160000Y-104102819D02*
X136017143Y-104150438D01*
X136017143Y-104150438D02*
X135921905Y-104245676D01*
X135921905Y-104245676D02*
X135874286Y-104340914D01*
X135874286Y-104340914D02*
X135826667Y-104531390D01*
X135826667Y-104531390D02*
X135826667Y-104674247D01*
X135826667Y-104674247D02*
X135874286Y-104864723D01*
X135874286Y-104864723D02*
X135921905Y-104959961D01*
X135921905Y-104959961D02*
X136017143Y-105055200D01*
X136017143Y-105055200D02*
X136160000Y-105102819D01*
X136160000Y-105102819D02*
X136255238Y-105102819D01*
X136255238Y-105102819D02*
X136398095Y-105055200D01*
X136398095Y-105055200D02*
X136445714Y-105007580D01*
X136445714Y-105007580D02*
X136445714Y-104674247D01*
X136445714Y-104674247D02*
X136255238Y-104674247D01*
X136874286Y-105102819D02*
X136874286Y-104102819D01*
X136874286Y-104102819D02*
X137445714Y-105102819D01*
X137445714Y-105102819D02*
X137445714Y-104102819D01*
X137921905Y-105102819D02*
X137921905Y-104102819D01*
X137921905Y-104102819D02*
X138160000Y-104102819D01*
X138160000Y-104102819D02*
X138302857Y-104150438D01*
X138302857Y-104150438D02*
X138398095Y-104245676D01*
X138398095Y-104245676D02*
X138445714Y-104340914D01*
X138445714Y-104340914D02*
X138493333Y-104531390D01*
X138493333Y-104531390D02*
X138493333Y-104674247D01*
X138493333Y-104674247D02*
X138445714Y-104864723D01*
X138445714Y-104864723D02*
X138398095Y-104959961D01*
X138398095Y-104959961D02*
X138302857Y-105055200D01*
X138302857Y-105055200D02*
X138160000Y-105102819D01*
X138160000Y-105102819D02*
X137921905Y-105102819D01*
%TO.C,REF\u002A\u002A*%
X171450000Y-80010000D02*
X166370000Y-80010000D01*
X166370000Y-80010000D02*
X166370000Y-87630000D01*
X166370000Y-87630000D02*
X171450000Y-87630000D01*
X171450000Y-87630000D02*
X171450000Y-80010000D01*
X131826000Y-89662000D02*
X136906000Y-89662000D01*
X136906000Y-89662000D02*
X136906000Y-94742000D01*
X136906000Y-94742000D02*
X131826000Y-94742000D01*
X131826000Y-94742000D02*
X131826000Y-89662000D01*
D13*
%TO.C,A1*%
X143380000Y-59560000D02*
X143380000Y-62230000D01*
X143380000Y-64770000D02*
X143380000Y-103000000D01*
X143380000Y-103000000D02*
X148460000Y-103000000D01*
X146050000Y-62230000D02*
X143380000Y-62230000D01*
X146050000Y-64770000D02*
X143380000Y-64770000D01*
X146050000Y-64770000D02*
X146050000Y-62230000D01*
X146050000Y-64770000D02*
X146050000Y-100330000D01*
X146050000Y-100330000D02*
X143380000Y-100330000D01*
X148460000Y-95120000D02*
X156340000Y-95120000D01*
X148460000Y-105540000D02*
X148460000Y-95120000D01*
X156340000Y-95120000D02*
X156340000Y-105540000D01*
X156340000Y-105540000D02*
X148460000Y-105540000D01*
X158750000Y-62230000D02*
X158750000Y-100330000D01*
X158750000Y-62230000D02*
X161420000Y-62230000D01*
X158750000Y-100330000D02*
X161420000Y-100330000D01*
X161420000Y-59560000D02*
X143380000Y-59560000D01*
X161420000Y-103000000D02*
X156340000Y-103000000D01*
X161420000Y-103000000D02*
X161420000Y-59560000D01*
D11*
%TO.C,SW_ECE411*%
X130048000Y-59436000D02*
X138684000Y-59436000D01*
X138684000Y-59436000D02*
X138684000Y-68072000D01*
X138684000Y-68072000D02*
X130048000Y-68072000D01*
X130048000Y-68072000D02*
X130048000Y-59436000D01*
%TO.C,Team 7*%
X131572000Y-54102000D02*
X141732000Y-54102000D01*
X141732000Y-54102000D02*
X141732000Y-56642000D01*
X141732000Y-56642000D02*
X131572000Y-56642000D01*
X131572000Y-56642000D02*
X131572000Y-54102000D01*
%TO.C,ADXL335*%
X130810000Y-72390000D02*
X133350000Y-72390000D01*
X133350000Y-72390000D02*
X133350000Y-85090000D01*
X133350000Y-85090000D02*
X130810000Y-85090000D01*
X130810000Y-85090000D02*
X130810000Y-72390000D01*
D13*
%TO.C,NRF24L01*%
X145796000Y-56642000D02*
X145796000Y-56642000D01*
X145796000Y-56642000D02*
X145796000Y-51308000D01*
X156464000Y-56642000D02*
X145796000Y-56642000D01*
X156464000Y-56642000D02*
X156464000Y-56642000D01*
X148590000Y-56388000D02*
X148590000Y-56388000D01*
X146304000Y-54102000D02*
X148590000Y-54102000D01*
X148590000Y-54102000D02*
X148590000Y-56388000D01*
X145796000Y-51308000D02*
X156464000Y-51308000D01*
X156464000Y-51308000D02*
X156464000Y-56642000D01*
D11*
%TO.C,L298N*%
X135890000Y-72390000D02*
X138430000Y-72390000D01*
X138430000Y-72390000D02*
X138430000Y-87630000D01*
X138430000Y-87630000D02*
X135890000Y-87630000D01*
X135890000Y-87630000D02*
X135890000Y-72390000D01*
%TD*%
%LPC*%
D14*
%TO.C,REF\u002A\u002A*%
X170180000Y-81280000D03*
X167640000Y-81280000D03*
X170180000Y-83820000D03*
X167640000Y-83820000D03*
X170180000Y-86360000D03*
X167640000Y-86360000D03*
%TD*%
D15*
%TO.C,REF\u002A\u002A*%
X133096000Y-90932000D03*
D14*
X133096000Y-93472000D03*
X135636000Y-90932000D03*
X135636000Y-93472000D03*
%TD*%
D16*
%TO.C,REF\u002A\u002A*%
X127254000Y-52832000D03*
%TD*%
D17*
%TO.C,A1*%
X144780000Y-63500000D03*
D18*
X144780000Y-66040000D03*
X144780000Y-68580000D03*
X144780000Y-71120000D03*
X144780000Y-73660000D03*
X144780000Y-76200000D03*
X144780000Y-78740000D03*
X144780000Y-81280000D03*
X144780000Y-83820000D03*
X144780000Y-86360000D03*
X144780000Y-88900000D03*
X144780000Y-91440000D03*
X144780000Y-93980000D03*
X144780000Y-96520000D03*
X144780000Y-99060000D03*
X160020000Y-99060000D03*
X160020000Y-96520000D03*
X160020000Y-93980000D03*
X160020000Y-91440000D03*
X160020000Y-88900000D03*
X160020000Y-86360000D03*
X160020000Y-83820000D03*
X160020000Y-81280000D03*
X160020000Y-78740000D03*
X160020000Y-76200000D03*
X160020000Y-73660000D03*
X160020000Y-71120000D03*
X160020000Y-68580000D03*
X160020000Y-66040000D03*
X160020000Y-63500000D03*
%TD*%
D19*
%TO.C,Vin*%
X132080000Y-101600000D03*
%TD*%
D14*
%TO.C,SW_ECE411*%
X132080000Y-60960000D03*
X134620000Y-60960000D03*
X137160000Y-60960000D03*
X132080000Y-66040000D03*
X134620000Y-66040000D03*
X137160000Y-66040000D03*
%TD*%
D15*
%TO.C,Team 7*%
X132842000Y-55372000D03*
D14*
X135382000Y-55372000D03*
X137922000Y-55372000D03*
X140462000Y-55372000D03*
%TD*%
%TO.C,ADXL335*%
X132080000Y-83820000D03*
X132080000Y-81280000D03*
X132080000Y-78740000D03*
X132080000Y-76200000D03*
D15*
X132080000Y-73660000D03*
%TD*%
%TO.C,NRF24L01*%
X147320000Y-55372000D03*
D14*
X147320000Y-52832000D03*
X149860000Y-55372000D03*
X149860000Y-52832000D03*
X152400000Y-55372000D03*
X152400000Y-52832000D03*
X154940000Y-55372000D03*
X154940000Y-52832000D03*
%TD*%
D15*
%TO.C,L298N*%
X137160000Y-73660000D03*
D14*
X137160000Y-76200000D03*
X137160000Y-78740000D03*
X137160000Y-81280000D03*
X137160000Y-83820000D03*
X137160000Y-86360000D03*
%TD*%
D16*
%TO.C,REF\u002A\u002A*%
X170180000Y-52832000D03*
%TD*%
D19*
%TO.C,GND*%
X137160000Y-101600000D03*
%TD*%
D16*
%TO.C,REF\u002A\u002A*%
X127762000Y-91440000D03*
%TD*%
%TO.C,REF\u002A\u002A*%
X170180000Y-91440000D03*
%TD*%
%LPD*%
M02*
