%TF.GenerationSoftware,KiCad,Pcbnew,7.0.6*%
%TF.CreationDate,2023-11-15T18:28:15-08:00*%
%TF.ProjectId,Project 2,50726f6a-6563-4742-9032-2e6b69636164,rev?*%
%TF.SameCoordinates,Original*%
%TF.FileFunction,Legend,Bot*%
%TF.FilePolarity,Positive*%
%FSLAX46Y46*%
G04 Gerber Fmt 4.6, Leading zero omitted, Abs format (unit mm)*
G04 Created by KiCad (PCBNEW 7.0.6) date 2023-11-15 18:28:15*
%MOMM*%
%LPD*%
G01*
G04 APERTURE LIST*
%ADD10C,1.700000*%
%ADD11R,1.700000X1.700000*%
%ADD12C,2.100000*%
%ADD13R,1.600000X1.600000*%
%ADD14O,1.600000X1.600000*%
%ADD15C,3.800000*%
G04 APERTURE END LIST*
%LPC*%
D10*
%TO.C,REF\u002A\u002A*%
X170180000Y-81280000D03*
X167640000Y-81280000D03*
X170180000Y-83820000D03*
X167640000Y-83820000D03*
X170180000Y-86360000D03*
X167640000Y-86360000D03*
%TD*%
D11*
%TO.C,REF\u002A\u002A*%
X133096000Y-90932000D03*
D10*
X133096000Y-93472000D03*
X135636000Y-90932000D03*
X135636000Y-93472000D03*
%TD*%
D12*
%TO.C,REF\u002A\u002A*%
X127254000Y-52832000D03*
%TD*%
D13*
%TO.C,A1*%
X144780000Y-63500000D03*
D14*
X144780000Y-66040000D03*
X144780000Y-68580000D03*
X144780000Y-71120000D03*
X144780000Y-73660000D03*
X144780000Y-76200000D03*
X144780000Y-78740000D03*
X144780000Y-81280000D03*
X144780000Y-83820000D03*
X144780000Y-86360000D03*
X144780000Y-88900000D03*
X144780000Y-91440000D03*
X144780000Y-93980000D03*
X144780000Y-96520000D03*
X144780000Y-99060000D03*
X160020000Y-99060000D03*
X160020000Y-96520000D03*
X160020000Y-93980000D03*
X160020000Y-91440000D03*
X160020000Y-88900000D03*
X160020000Y-86360000D03*
X160020000Y-83820000D03*
X160020000Y-81280000D03*
X160020000Y-78740000D03*
X160020000Y-76200000D03*
X160020000Y-73660000D03*
X160020000Y-71120000D03*
X160020000Y-68580000D03*
X160020000Y-66040000D03*
X160020000Y-63500000D03*
%TD*%
D15*
%TO.C,Vin*%
X132080000Y-101600000D03*
%TD*%
D10*
%TO.C,SW_ECE411*%
X132080000Y-60960000D03*
X134620000Y-60960000D03*
X137160000Y-60960000D03*
X132080000Y-66040000D03*
X134620000Y-66040000D03*
X137160000Y-66040000D03*
%TD*%
D11*
%TO.C,Team 7*%
X132842000Y-55372000D03*
D10*
X135382000Y-55372000D03*
X137922000Y-55372000D03*
X140462000Y-55372000D03*
%TD*%
%TO.C,ADXL335*%
X132080000Y-83820000D03*
X132080000Y-81280000D03*
X132080000Y-78740000D03*
X132080000Y-76200000D03*
D11*
X132080000Y-73660000D03*
%TD*%
%TO.C,NRF24L01*%
X147320000Y-55372000D03*
D10*
X147320000Y-52832000D03*
X149860000Y-55372000D03*
X149860000Y-52832000D03*
X152400000Y-55372000D03*
X152400000Y-52832000D03*
X154940000Y-55372000D03*
X154940000Y-52832000D03*
%TD*%
D11*
%TO.C,L298N*%
X137160000Y-73660000D03*
D10*
X137160000Y-76200000D03*
X137160000Y-78740000D03*
X137160000Y-81280000D03*
X137160000Y-83820000D03*
X137160000Y-86360000D03*
%TD*%
D12*
%TO.C,REF\u002A\u002A*%
X170180000Y-52832000D03*
%TD*%
D15*
%TO.C,GND*%
X137160000Y-101600000D03*
%TD*%
D12*
%TO.C,REF\u002A\u002A*%
X127762000Y-91440000D03*
%TD*%
%TO.C,REF\u002A\u002A*%
X170180000Y-91440000D03*
%TD*%
%LPD*%
M02*
