M48
; DRILL file {KiCad 7.0.6} date Wed Nov 15 18:28:18 2023
; FORMAT={-:-/ absolute / inch / decimal}
; #@! TF.CreationDate,2023-11-15T18:28:18-08:00
; #@! TF.GenerationSoftware,Kicad,Pcbnew,7.0.6
; #@! TF.FileFunction,Plated,1,2,PTH
FMAT,2
INCH
; #@! TA.AperFunction,Plated,PTH,ViaDrill
T1C0.0157
; #@! TA.AperFunction,Plated,PTH,ComponentDrill
T2C0.0394
; #@! TA.AperFunction,Plated,PTH,ComponentDrill
T3C0.0866
%
G90
G05
T1
X5.684Y-2.084
T2
X5.2Y-2.4
X5.2Y-2.6
X5.2Y-2.9
X5.2Y-3.0
X5.2Y-3.1
X5.2Y-3.2
X5.2Y-3.3
X5.23Y-2.18
X5.24Y-3.58
X5.24Y-3.68
X5.3Y-2.4
X5.3Y-2.6
X5.33Y-2.18
X5.34Y-3.58
X5.34Y-3.68
X5.4Y-2.4
X5.4Y-2.6
X5.4Y-2.9
X5.4Y-3.0
X5.4Y-3.1
X5.4Y-3.2
X5.4Y-3.3
X5.4Y-3.4
X5.43Y-2.18
X5.53Y-2.18
X5.7Y-2.5
X5.7Y-2.6
X5.7Y-2.7
X5.7Y-2.8
X5.7Y-2.9
X5.7Y-3.0
X5.7Y-3.1
X5.7Y-3.2
X5.7Y-3.3
X5.7Y-3.4
X5.7Y-3.5
X5.7Y-3.6
X5.7Y-3.7
X5.7Y-3.8
X5.7Y-3.9
X5.8Y-2.08
X5.8Y-2.18
X5.9Y-2.08
X5.9Y-2.18
X6.0Y-2.08
X6.0Y-2.18
X6.1Y-2.08
X6.1Y-2.18
X6.3Y-2.5
X6.3Y-2.6
X6.3Y-2.7
X6.3Y-2.8
X6.3Y-2.9
X6.3Y-3.0
X6.3Y-3.1
X6.3Y-3.2
X6.3Y-3.3
X6.3Y-3.4
X6.3Y-3.5
X6.3Y-3.6
X6.3Y-3.7
X6.3Y-3.8
X6.3Y-3.9
X6.6Y-3.2
X6.6Y-3.3
X6.6Y-3.4
X6.7Y-3.2
X6.7Y-3.3
X6.7Y-3.4
T3
X5.2Y-4.0
X5.4Y-4.0
T0
M30
