%TF.GenerationSoftware,KiCad,Pcbnew,7.0.6*%
%TF.CreationDate,2023-11-15T18:28:15-08:00*%
%TF.ProjectId,Project 2,50726f6a-6563-4742-9032-2e6b69636164,rev?*%
%TF.SameCoordinates,Original*%
%TF.FileFunction,Copper,L2,Bot*%
%TF.FilePolarity,Positive*%
%FSLAX46Y46*%
G04 Gerber Fmt 4.6, Leading zero omitted, Abs format (unit mm)*
G04 Created by KiCad (PCBNEW 7.0.6) date 2023-11-15 18:28:15*
%MOMM*%
%LPD*%
G01*
G04 APERTURE LIST*
%TA.AperFunction,ComponentPad*%
%ADD10C,1.700000*%
%TD*%
%TA.AperFunction,ComponentPad*%
%ADD11R,1.700000X1.700000*%
%TD*%
%TA.AperFunction,ComponentPad*%
%ADD12R,1.600000X1.600000*%
%TD*%
%TA.AperFunction,ComponentPad*%
%ADD13O,1.600000X1.600000*%
%TD*%
%TA.AperFunction,ComponentPad*%
%ADD14C,3.800000*%
%TD*%
%TA.AperFunction,ViaPad*%
%ADD15C,0.800000*%
%TD*%
%TA.AperFunction,Conductor*%
%ADD16C,0.250000*%
%TD*%
%TA.AperFunction,Conductor*%
%ADD17C,1.000000*%
%TD*%
G04 APERTURE END LIST*
D10*
%TO.P,REF\u002A\u002A,1*%
%TO.N,N/C*%
X170180000Y-81280000D03*
%TO.P,REF\u002A\u002A,2*%
X167640000Y-81280000D03*
%TO.P,REF\u002A\u002A,3*%
X170180000Y-83820000D03*
%TO.P,REF\u002A\u002A,4*%
X167640000Y-83820000D03*
%TO.P,REF\u002A\u002A,5*%
X170180000Y-86360000D03*
%TO.P,REF\u002A\u002A,6*%
X167640000Y-86360000D03*
%TD*%
D11*
%TO.P,REF\u002A\u002A,1*%
%TO.N,N/C*%
X133096000Y-90932000D03*
D10*
%TO.P,REF\u002A\u002A,2*%
X133096000Y-93472000D03*
%TO.P,REF\u002A\u002A,3*%
X135636000Y-90932000D03*
%TO.P,REF\u002A\u002A,4*%
X135636000Y-93472000D03*
%TD*%
D12*
%TO.P,A1,1*%
%TO.N,N/C*%
X144780000Y-63500000D03*
D13*
%TO.P,A1,2*%
X144780000Y-66040000D03*
%TO.P,A1,3*%
X144780000Y-68580000D03*
%TO.P,A1,4*%
X144780000Y-71120000D03*
%TO.P,A1,5*%
X144780000Y-73660000D03*
%TO.P,A1,6*%
X144780000Y-76200000D03*
%TO.P,A1,7*%
X144780000Y-78740000D03*
%TO.P,A1,8*%
X144780000Y-81280000D03*
%TO.P,A1,9*%
X144780000Y-83820000D03*
%TO.P,A1,10*%
X144780000Y-86360000D03*
%TO.P,A1,11*%
X144780000Y-88900000D03*
%TO.P,A1,12*%
X144780000Y-91440000D03*
%TO.P,A1,13*%
X144780000Y-93980000D03*
%TO.P,A1,14*%
X144780000Y-96520000D03*
%TO.P,A1,15*%
X144780000Y-99060000D03*
%TO.P,A1,16*%
X160020000Y-99060000D03*
%TO.P,A1,17*%
X160020000Y-96520000D03*
%TO.P,A1,18*%
X160020000Y-93980000D03*
%TO.P,A1,19*%
X160020000Y-91440000D03*
%TO.P,A1,20*%
X160020000Y-88900000D03*
%TO.P,A1,21*%
X160020000Y-86360000D03*
%TO.P,A1,22*%
X160020000Y-83820000D03*
%TO.P,A1,23*%
X160020000Y-81280000D03*
%TO.P,A1,24*%
X160020000Y-78740000D03*
%TO.P,A1,25*%
X160020000Y-76200000D03*
%TO.P,A1,26*%
X160020000Y-73660000D03*
%TO.P,A1,27*%
X160020000Y-71120000D03*
%TO.P,A1,28*%
X160020000Y-68580000D03*
%TO.P,A1,29*%
X160020000Y-66040000D03*
%TO.P,A1,30*%
X160020000Y-63500000D03*
%TD*%
D14*
%TO.P,Vin,1*%
%TO.N,N/C*%
X132080000Y-101600000D03*
%TD*%
D10*
%TO.P,SW_ECE411,1*%
%TO.N,N/C*%
X132080000Y-60960000D03*
%TO.P,SW_ECE411,2*%
X134620000Y-60960000D03*
%TO.P,SW_ECE411,3*%
X137160000Y-60960000D03*
%TO.P,SW_ECE411,4*%
X132080000Y-66040000D03*
%TO.P,SW_ECE411,5*%
X134620000Y-66040000D03*
%TO.P,SW_ECE411,6*%
X137160000Y-66040000D03*
%TD*%
D11*
%TO.P,Team 7,1*%
%TO.N,N/C*%
X132842000Y-55372000D03*
D10*
%TO.P,Team 7,2*%
X135382000Y-55372000D03*
%TO.P,Team 7,3*%
X137922000Y-55372000D03*
%TO.P,Team 7,4*%
X140462000Y-55372000D03*
%TD*%
%TO.P,ADXL335,5*%
%TO.N,N/C*%
X132080000Y-83820000D03*
%TO.P,ADXL335,4*%
X132080000Y-81280000D03*
%TO.P,ADXL335,3*%
X132080000Y-78740000D03*
%TO.P,ADXL335,2*%
X132080000Y-76200000D03*
D11*
%TO.P,ADXL335,1*%
X132080000Y-73660000D03*
%TD*%
%TO.P,NRF24L01,1*%
%TO.N,N/C*%
X147320000Y-55372000D03*
D10*
%TO.P,NRF24L01,2*%
X147320000Y-52832000D03*
%TO.P,NRF24L01,3*%
X149860000Y-55372000D03*
%TO.P,NRF24L01,4*%
X149860000Y-52832000D03*
%TO.P,NRF24L01,5*%
X152400000Y-55372000D03*
%TO.P,NRF24L01,6*%
X152400000Y-52832000D03*
%TO.P,NRF24L01,7*%
X154940000Y-55372000D03*
%TO.P,NRF24L01,8*%
X154940000Y-52832000D03*
%TD*%
D11*
%TO.P,L298N,1*%
%TO.N,N/C*%
X137160000Y-73660000D03*
D10*
%TO.P,L298N,2*%
X137160000Y-76200000D03*
%TO.P,L298N,3*%
X137160000Y-78740000D03*
%TO.P,L298N,4*%
X137160000Y-81280000D03*
%TO.P,L298N,5*%
X137160000Y-83820000D03*
%TO.P,L298N,6*%
X137160000Y-86360000D03*
%TD*%
D14*
%TO.P,GND,2*%
%TO.N,N/C*%
X137160000Y-101600000D03*
%TD*%
D15*
%TO.N,*%
X144373600Y-52933600D03*
%TD*%
D16*
%TO.N,*%
X129997200Y-75869800D02*
X129997200Y-79197200D01*
X129997200Y-79197200D02*
X132080000Y-81280000D01*
X136067800Y-77495400D02*
X133502400Y-74930000D01*
X133502400Y-74930000D02*
X130937000Y-74930000D01*
X130937000Y-74930000D02*
X129997200Y-75869800D01*
X146608800Y-77495400D02*
X136067800Y-77495400D01*
X160020000Y-86360000D02*
X155473400Y-86360000D01*
X155473400Y-86360000D02*
X146608800Y-77495400D01*
X143154400Y-51714400D02*
X143154400Y-51689000D01*
X144373600Y-52933600D02*
X143154400Y-51714400D01*
D17*
X141732000Y-55372000D02*
X157480000Y-71120000D01*
X157480000Y-71120000D02*
X160020000Y-71120000D01*
X140462000Y-55372000D02*
X141732000Y-55372000D01*
X140462000Y-66548000D02*
X140462000Y-55372000D01*
X133350000Y-73660000D02*
X140462000Y-66548000D01*
X132080000Y-73660000D02*
X133350000Y-73660000D01*
D16*
X146100800Y-82600800D02*
X135940800Y-82600800D01*
X156184600Y-92684600D02*
X146100800Y-82600800D01*
X160248600Y-92684600D02*
X156184600Y-92684600D01*
X161569400Y-90449400D02*
X161569400Y-91363800D01*
X161569400Y-91363800D02*
X160248600Y-92684600D01*
X160020000Y-88900000D02*
X161569400Y-90449400D01*
X135940800Y-82600800D02*
X132080000Y-78740000D01*
X144780000Y-91440000D02*
X142240000Y-91440000D01*
X158089600Y-91440000D02*
X146583400Y-79933800D01*
X144780000Y-86360000D02*
X139700000Y-86360000D01*
X137287000Y-51689000D02*
X143154400Y-51689000D01*
X142240000Y-91440000D02*
X137160000Y-86360000D01*
X146583400Y-79933800D02*
X136626600Y-79933800D01*
X135382000Y-55372000D02*
X135382000Y-53594000D01*
X134289800Y-77597000D02*
X133477000Y-77597000D01*
X161315400Y-95275400D02*
X162763200Y-93827600D01*
X139700000Y-76200000D02*
X137160000Y-73660000D01*
X136626600Y-79933800D02*
X134289800Y-77597000D01*
D17*
X138938000Y-53340000D02*
X137922000Y-54356000D01*
D16*
X166116000Y-71120000D02*
X166116000Y-64516000D01*
X162763200Y-74472800D02*
X166116000Y-71120000D01*
X135382000Y-53594000D02*
X137287000Y-51689000D01*
X139700000Y-86360000D02*
X137160000Y-83820000D01*
X160020000Y-91440000D02*
X158089600Y-91440000D01*
X144780000Y-88900000D02*
X150723600Y-88900000D01*
X144399000Y-52933600D02*
X144373600Y-52908200D01*
X157099000Y-95275400D02*
X161315400Y-95275400D01*
X166116000Y-64516000D02*
X159918400Y-58318400D01*
X144373600Y-52908200D02*
X144373600Y-52933600D01*
D17*
X142240000Y-53340000D02*
X138938000Y-53340000D01*
X137922000Y-54356000D02*
X137922000Y-55372000D01*
X157988000Y-66040000D02*
X160020000Y-66040000D01*
D16*
X159918400Y-58318400D02*
X152806400Y-58318400D01*
D17*
X147320000Y-55372000D02*
X144272000Y-55372000D01*
D16*
X133477000Y-77597000D02*
X132080000Y-76200000D01*
X150723600Y-88900000D02*
X157099000Y-95275400D01*
X144373600Y-52933600D02*
X144399000Y-52933600D01*
X152806400Y-58318400D02*
X149860000Y-55372000D01*
D17*
X144272000Y-55372000D02*
X142240000Y-53340000D01*
D16*
X162763200Y-93827600D02*
X162763200Y-74472800D01*
X144780000Y-76200000D02*
X139700000Y-76200000D01*
D17*
X147320000Y-55372000D02*
X157988000Y-66040000D01*
%TD*%
M02*
